<mxfile host="app.diagrams.net" modified="2024-02-05T08:56:19.779Z" agent="Mozilla/5.0 (Windows NT 10.0; Win64; x64; rv:122.0) Gecko/20100101 Firefox/122.0" etag="UXNVsSCwyGjXEkTlu-8w" version="23.1.1" type="onedrive">
  <diagram id="R2lEEEUBdFMjLlhIrx00" name="Page-1">
    <mxGraphModel dx="1290" dy="519" grid="0" gridSize="10" guides="1" tooltips="1" connect="1" arrows="1" fold="1" page="1" pageScale="1" pageWidth="1169" pageHeight="1654" background="#ffffff" math="0" shadow="0" extFonts="Permanent Marker^https://fonts.googleapis.com/css?family=Permanent+Marker">
      <root>
        <mxCell id="0" />
        <mxCell id="1" parent="0" />
        <mxCell id="sooAV_fpW613uQZeQXmA-1" value="GUESTS" style="shape=table;startSize=30;container=1;collapsible=1;childLayout=tableLayout;fixedRows=1;rowLines=0;fontStyle=1;align=center;resizeLast=1;html=1;labelBackgroundColor=none;" parent="1" vertex="1">
          <mxGeometry x="585" y="160" width="180" height="180" as="geometry" />
        </mxCell>
        <mxCell id="sooAV_fpW613uQZeQXmA-2" value="" style="shape=tableRow;horizontal=0;startSize=0;swimlaneHead=0;swimlaneBody=0;fillColor=none;collapsible=0;dropTarget=0;points=[[0,0.5],[1,0.5]];portConstraint=eastwest;top=0;left=0;right=0;bottom=1;labelBackgroundColor=none;" parent="sooAV_fpW613uQZeQXmA-1" vertex="1">
          <mxGeometry y="30" width="180" height="30" as="geometry" />
        </mxCell>
        <mxCell id="sooAV_fpW613uQZeQXmA-3" value="PK" style="shape=partialRectangle;connectable=0;fillColor=none;top=0;left=0;bottom=0;right=0;fontStyle=1;overflow=hidden;whiteSpace=wrap;html=1;labelBackgroundColor=none;" parent="sooAV_fpW613uQZeQXmA-2" vertex="1">
          <mxGeometry width="30" height="30" as="geometry">
            <mxRectangle width="30" height="30" as="alternateBounds" />
          </mxGeometry>
        </mxCell>
        <mxCell id="sooAV_fpW613uQZeQXmA-4" value="&lt;p&gt;guest_id&lt;/p&gt;" style="shape=partialRectangle;connectable=0;fillColor=none;top=0;left=0;bottom=0;right=0;align=left;spacingLeft=6;fontStyle=5;overflow=hidden;whiteSpace=wrap;html=1;labelBackgroundColor=none;" parent="sooAV_fpW613uQZeQXmA-2" vertex="1">
          <mxGeometry x="30" width="150" height="30" as="geometry">
            <mxRectangle width="150" height="30" as="alternateBounds" />
          </mxGeometry>
        </mxCell>
        <mxCell id="sooAV_fpW613uQZeQXmA-5" value="" style="shape=tableRow;horizontal=0;startSize=0;swimlaneHead=0;swimlaneBody=0;fillColor=none;collapsible=0;dropTarget=0;points=[[0,0.5],[1,0.5]];portConstraint=eastwest;top=0;left=0;right=0;bottom=0;labelBackgroundColor=none;" parent="sooAV_fpW613uQZeQXmA-1" vertex="1">
          <mxGeometry y="60" width="180" height="30" as="geometry" />
        </mxCell>
        <mxCell id="sooAV_fpW613uQZeQXmA-6" value="" style="shape=partialRectangle;connectable=0;fillColor=none;top=0;left=0;bottom=0;right=0;editable=1;overflow=hidden;whiteSpace=wrap;html=1;labelBackgroundColor=none;" parent="sooAV_fpW613uQZeQXmA-5" vertex="1">
          <mxGeometry width="30" height="30" as="geometry">
            <mxRectangle width="30" height="30" as="alternateBounds" />
          </mxGeometry>
        </mxCell>
        <mxCell id="sooAV_fpW613uQZeQXmA-7" value="&lt;p&gt;guest_name&lt;/p&gt;" style="shape=partialRectangle;connectable=0;fillColor=none;top=0;left=0;bottom=0;right=0;align=left;spacingLeft=6;overflow=hidden;whiteSpace=wrap;html=1;labelBackgroundColor=none;" parent="sooAV_fpW613uQZeQXmA-5" vertex="1">
          <mxGeometry x="30" width="150" height="30" as="geometry">
            <mxRectangle width="150" height="30" as="alternateBounds" />
          </mxGeometry>
        </mxCell>
        <mxCell id="sooAV_fpW613uQZeQXmA-8" value="" style="shape=tableRow;horizontal=0;startSize=0;swimlaneHead=0;swimlaneBody=0;fillColor=none;collapsible=0;dropTarget=0;points=[[0,0.5],[1,0.5]];portConstraint=eastwest;top=0;left=0;right=0;bottom=0;labelBackgroundColor=none;" parent="sooAV_fpW613uQZeQXmA-1" vertex="1">
          <mxGeometry y="90" width="180" height="30" as="geometry" />
        </mxCell>
        <mxCell id="sooAV_fpW613uQZeQXmA-9" value="" style="shape=partialRectangle;connectable=0;fillColor=none;top=0;left=0;bottom=0;right=0;editable=1;overflow=hidden;whiteSpace=wrap;html=1;labelBackgroundColor=none;" parent="sooAV_fpW613uQZeQXmA-8" vertex="1">
          <mxGeometry width="30" height="30" as="geometry">
            <mxRectangle width="30" height="30" as="alternateBounds" />
          </mxGeometry>
        </mxCell>
        <mxCell id="sooAV_fpW613uQZeQXmA-10" value="&lt;p&gt;guest_surname&lt;/p&gt;" style="shape=partialRectangle;connectable=0;fillColor=none;top=0;left=0;bottom=0;right=0;align=left;spacingLeft=6;overflow=hidden;whiteSpace=wrap;html=1;labelBackgroundColor=none;" parent="sooAV_fpW613uQZeQXmA-8" vertex="1">
          <mxGeometry x="30" width="150" height="30" as="geometry">
            <mxRectangle width="150" height="30" as="alternateBounds" />
          </mxGeometry>
        </mxCell>
        <mxCell id="sooAV_fpW613uQZeQXmA-11" value="" style="shape=tableRow;horizontal=0;startSize=0;swimlaneHead=0;swimlaneBody=0;fillColor=none;collapsible=0;dropTarget=0;points=[[0,0.5],[1,0.5]];portConstraint=eastwest;top=0;left=0;right=0;bottom=0;labelBackgroundColor=none;" parent="sooAV_fpW613uQZeQXmA-1" vertex="1">
          <mxGeometry y="120" width="180" height="30" as="geometry" />
        </mxCell>
        <mxCell id="sooAV_fpW613uQZeQXmA-12" value="" style="shape=partialRectangle;connectable=0;fillColor=none;top=0;left=0;bottom=0;right=0;editable=1;overflow=hidden;whiteSpace=wrap;html=1;labelBackgroundColor=none;" parent="sooAV_fpW613uQZeQXmA-11" vertex="1">
          <mxGeometry width="30" height="30" as="geometry">
            <mxRectangle width="30" height="30" as="alternateBounds" />
          </mxGeometry>
        </mxCell>
        <mxCell id="sooAV_fpW613uQZeQXmA-13" value="&lt;p&gt;guest_email&lt;/p&gt;" style="shape=partialRectangle;connectable=0;fillColor=none;top=0;left=0;bottom=0;right=0;align=left;spacingLeft=6;overflow=hidden;whiteSpace=wrap;html=1;labelBackgroundColor=none;" parent="sooAV_fpW613uQZeQXmA-11" vertex="1">
          <mxGeometry x="30" width="150" height="30" as="geometry">
            <mxRectangle width="150" height="30" as="alternateBounds" />
          </mxGeometry>
        </mxCell>
        <mxCell id="sooAV_fpW613uQZeQXmA-19" value="" style="shape=tableRow;horizontal=0;startSize=0;swimlaneHead=0;swimlaneBody=0;fillColor=none;collapsible=0;dropTarget=0;points=[[0,0.5],[1,0.5]];portConstraint=eastwest;top=0;left=0;right=0;bottom=0;labelBackgroundColor=none;" parent="sooAV_fpW613uQZeQXmA-1" vertex="1">
          <mxGeometry y="150" width="180" height="30" as="geometry" />
        </mxCell>
        <mxCell id="sooAV_fpW613uQZeQXmA-20" value="" style="shape=partialRectangle;connectable=0;fillColor=none;top=0;left=0;bottom=0;right=0;editable=1;overflow=hidden;labelBackgroundColor=none;" parent="sooAV_fpW613uQZeQXmA-19" vertex="1">
          <mxGeometry width="30" height="30" as="geometry">
            <mxRectangle width="30" height="30" as="alternateBounds" />
          </mxGeometry>
        </mxCell>
        <mxCell id="sooAV_fpW613uQZeQXmA-21" value="username" style="shape=partialRectangle;connectable=0;fillColor=none;top=0;left=0;bottom=0;right=0;align=left;spacingLeft=6;overflow=hidden;labelBackgroundColor=none;" parent="sooAV_fpW613uQZeQXmA-19" vertex="1">
          <mxGeometry x="30" width="150" height="30" as="geometry">
            <mxRectangle width="150" height="30" as="alternateBounds" />
          </mxGeometry>
        </mxCell>
        <mxCell id="sooAV_fpW613uQZeQXmA-51" value="EMPLOYEES" style="shape=table;startSize=30;container=1;collapsible=1;childLayout=tableLayout;fixedRows=1;rowLines=0;fontStyle=1;align=center;resizeLast=1;html=1;labelBackgroundColor=none;" parent="1" vertex="1">
          <mxGeometry x="125" y="370" width="180" height="270" as="geometry">
            <mxRectangle x="350" y="80" width="110" height="30" as="alternateBounds" />
          </mxGeometry>
        </mxCell>
        <mxCell id="sooAV_fpW613uQZeQXmA-52" value="" style="shape=tableRow;horizontal=0;startSize=0;swimlaneHead=0;swimlaneBody=0;fillColor=none;collapsible=0;dropTarget=0;points=[[0,0.5],[1,0.5]];portConstraint=eastwest;top=0;left=0;right=0;bottom=1;labelBackgroundColor=none;" parent="sooAV_fpW613uQZeQXmA-51" vertex="1">
          <mxGeometry y="30" width="180" height="30" as="geometry" />
        </mxCell>
        <mxCell id="sooAV_fpW613uQZeQXmA-53" value="PK" style="shape=partialRectangle;connectable=0;fillColor=none;top=0;left=0;bottom=0;right=0;fontStyle=1;overflow=hidden;whiteSpace=wrap;html=1;labelBackgroundColor=none;" parent="sooAV_fpW613uQZeQXmA-52" vertex="1">
          <mxGeometry width="30" height="30" as="geometry">
            <mxRectangle width="30" height="30" as="alternateBounds" />
          </mxGeometry>
        </mxCell>
        <mxCell id="sooAV_fpW613uQZeQXmA-54" value="&lt;p&gt;employee_id&lt;/p&gt;" style="shape=partialRectangle;connectable=0;fillColor=none;top=0;left=0;bottom=0;right=0;align=left;spacingLeft=6;fontStyle=5;overflow=hidden;whiteSpace=wrap;html=1;labelBackgroundColor=none;" parent="sooAV_fpW613uQZeQXmA-52" vertex="1">
          <mxGeometry x="30" width="150" height="30" as="geometry">
            <mxRectangle width="150" height="30" as="alternateBounds" />
          </mxGeometry>
        </mxCell>
        <mxCell id="sooAV_fpW613uQZeQXmA-55" value="" style="shape=tableRow;horizontal=0;startSize=0;swimlaneHead=0;swimlaneBody=0;fillColor=none;collapsible=0;dropTarget=0;points=[[0,0.5],[1,0.5]];portConstraint=eastwest;top=0;left=0;right=0;bottom=0;labelBackgroundColor=none;" parent="sooAV_fpW613uQZeQXmA-51" vertex="1">
          <mxGeometry y="60" width="180" height="30" as="geometry" />
        </mxCell>
        <mxCell id="sooAV_fpW613uQZeQXmA-56" value="" style="shape=partialRectangle;connectable=0;fillColor=none;top=0;left=0;bottom=0;right=0;editable=1;overflow=hidden;whiteSpace=wrap;html=1;labelBackgroundColor=none;" parent="sooAV_fpW613uQZeQXmA-55" vertex="1">
          <mxGeometry width="30" height="30" as="geometry">
            <mxRectangle width="30" height="30" as="alternateBounds" />
          </mxGeometry>
        </mxCell>
        <mxCell id="sooAV_fpW613uQZeQXmA-57" value="&lt;p&gt;employee_name&lt;/p&gt;" style="shape=partialRectangle;connectable=0;fillColor=none;top=0;left=0;bottom=0;right=0;align=left;spacingLeft=6;overflow=hidden;whiteSpace=wrap;html=1;labelBackgroundColor=none;" parent="sooAV_fpW613uQZeQXmA-55" vertex="1">
          <mxGeometry x="30" width="150" height="30" as="geometry">
            <mxRectangle width="150" height="30" as="alternateBounds" />
          </mxGeometry>
        </mxCell>
        <mxCell id="sooAV_fpW613uQZeQXmA-58" value="" style="shape=tableRow;horizontal=0;startSize=0;swimlaneHead=0;swimlaneBody=0;fillColor=none;collapsible=0;dropTarget=0;points=[[0,0.5],[1,0.5]];portConstraint=eastwest;top=0;left=0;right=0;bottom=0;labelBackgroundColor=none;" parent="sooAV_fpW613uQZeQXmA-51" vertex="1">
          <mxGeometry y="90" width="180" height="30" as="geometry" />
        </mxCell>
        <mxCell id="sooAV_fpW613uQZeQXmA-59" value="" style="shape=partialRectangle;connectable=0;fillColor=none;top=0;left=0;bottom=0;right=0;editable=1;overflow=hidden;whiteSpace=wrap;html=1;labelBackgroundColor=none;" parent="sooAV_fpW613uQZeQXmA-58" vertex="1">
          <mxGeometry width="30" height="30" as="geometry">
            <mxRectangle width="30" height="30" as="alternateBounds" />
          </mxGeometry>
        </mxCell>
        <mxCell id="sooAV_fpW613uQZeQXmA-60" value="&lt;p&gt;employee_surname&lt;/p&gt;" style="shape=partialRectangle;connectable=0;fillColor=none;top=0;left=0;bottom=0;right=0;align=left;spacingLeft=6;overflow=hidden;whiteSpace=wrap;html=1;labelBackgroundColor=none;" parent="sooAV_fpW613uQZeQXmA-58" vertex="1">
          <mxGeometry x="30" width="150" height="30" as="geometry">
            <mxRectangle width="150" height="30" as="alternateBounds" />
          </mxGeometry>
        </mxCell>
        <mxCell id="sooAV_fpW613uQZeQXmA-61" value="" style="shape=tableRow;horizontal=0;startSize=0;swimlaneHead=0;swimlaneBody=0;fillColor=none;collapsible=0;dropTarget=0;points=[[0,0.5],[1,0.5]];portConstraint=eastwest;top=0;left=0;right=0;bottom=0;labelBackgroundColor=none;" parent="sooAV_fpW613uQZeQXmA-51" vertex="1">
          <mxGeometry y="120" width="180" height="30" as="geometry" />
        </mxCell>
        <mxCell id="sooAV_fpW613uQZeQXmA-62" value="" style="shape=partialRectangle;connectable=0;fillColor=none;top=0;left=0;bottom=0;right=0;editable=1;overflow=hidden;whiteSpace=wrap;html=1;labelBackgroundColor=none;" parent="sooAV_fpW613uQZeQXmA-61" vertex="1">
          <mxGeometry width="30" height="30" as="geometry">
            <mxRectangle width="30" height="30" as="alternateBounds" />
          </mxGeometry>
        </mxCell>
        <mxCell id="sooAV_fpW613uQZeQXmA-63" value="&lt;p&gt;employee_email&lt;/p&gt;" style="shape=partialRectangle;connectable=0;fillColor=none;top=0;left=0;bottom=0;right=0;align=left;spacingLeft=6;overflow=hidden;whiteSpace=wrap;html=1;labelBackgroundColor=none;" parent="sooAV_fpW613uQZeQXmA-61" vertex="1">
          <mxGeometry x="30" width="150" height="30" as="geometry">
            <mxRectangle width="150" height="30" as="alternateBounds" />
          </mxGeometry>
        </mxCell>
        <mxCell id="sooAV_fpW613uQZeQXmA-64" value="" style="shape=tableRow;horizontal=0;startSize=0;swimlaneHead=0;swimlaneBody=0;fillColor=none;collapsible=0;dropTarget=0;points=[[0,0.5],[1,0.5]];portConstraint=eastwest;top=0;left=0;right=0;bottom=0;labelBackgroundColor=none;" parent="sooAV_fpW613uQZeQXmA-51" vertex="1">
          <mxGeometry y="150" width="180" height="30" as="geometry" />
        </mxCell>
        <mxCell id="sooAV_fpW613uQZeQXmA-65" value="" style="shape=partialRectangle;connectable=0;fillColor=none;top=0;left=0;bottom=0;right=0;editable=1;overflow=hidden;labelBackgroundColor=none;" parent="sooAV_fpW613uQZeQXmA-64" vertex="1">
          <mxGeometry width="30" height="30" as="geometry">
            <mxRectangle width="30" height="30" as="alternateBounds" />
          </mxGeometry>
        </mxCell>
        <mxCell id="sooAV_fpW613uQZeQXmA-66" value="employee_position" style="shape=partialRectangle;connectable=0;fillColor=none;top=0;left=0;bottom=0;right=0;align=left;spacingLeft=6;overflow=hidden;labelBackgroundColor=none;" parent="sooAV_fpW613uQZeQXmA-64" vertex="1">
          <mxGeometry x="30" width="150" height="30" as="geometry">
            <mxRectangle width="150" height="30" as="alternateBounds" />
          </mxGeometry>
        </mxCell>
        <mxCell id="sooAV_fpW613uQZeQXmA-67" value="" style="shape=tableRow;horizontal=0;startSize=0;swimlaneHead=0;swimlaneBody=0;fillColor=none;collapsible=0;dropTarget=0;points=[[0,0.5],[1,0.5]];portConstraint=eastwest;top=0;left=0;right=0;bottom=0;labelBackgroundColor=none;" parent="sooAV_fpW613uQZeQXmA-51" vertex="1">
          <mxGeometry y="180" width="180" height="30" as="geometry" />
        </mxCell>
        <mxCell id="sooAV_fpW613uQZeQXmA-68" value="" style="shape=partialRectangle;connectable=0;fillColor=none;top=0;left=0;bottom=0;right=0;editable=1;overflow=hidden;labelBackgroundColor=none;" parent="sooAV_fpW613uQZeQXmA-67" vertex="1">
          <mxGeometry width="30" height="30" as="geometry">
            <mxRectangle width="30" height="30" as="alternateBounds" />
          </mxGeometry>
        </mxCell>
        <mxCell id="sooAV_fpW613uQZeQXmA-69" value="employee_hire_date" style="shape=partialRectangle;connectable=0;fillColor=none;top=0;left=0;bottom=0;right=0;align=left;spacingLeft=6;overflow=hidden;labelBackgroundColor=none;" parent="sooAV_fpW613uQZeQXmA-67" vertex="1">
          <mxGeometry x="30" width="150" height="30" as="geometry">
            <mxRectangle width="150" height="30" as="alternateBounds" />
          </mxGeometry>
        </mxCell>
        <mxCell id="sooAV_fpW613uQZeQXmA-70" value="" style="shape=tableRow;horizontal=0;startSize=0;swimlaneHead=0;swimlaneBody=0;fillColor=none;collapsible=0;dropTarget=0;points=[[0,0.5],[1,0.5]];portConstraint=eastwest;top=0;left=0;right=0;bottom=0;labelBackgroundColor=none;" parent="sooAV_fpW613uQZeQXmA-51" vertex="1">
          <mxGeometry y="210" width="180" height="30" as="geometry" />
        </mxCell>
        <mxCell id="sooAV_fpW613uQZeQXmA-71" value="" style="shape=partialRectangle;connectable=0;fillColor=none;top=0;left=0;bottom=0;right=0;editable=1;overflow=hidden;labelBackgroundColor=none;" parent="sooAV_fpW613uQZeQXmA-70" vertex="1">
          <mxGeometry width="30" height="30" as="geometry">
            <mxRectangle width="30" height="30" as="alternateBounds" />
          </mxGeometry>
        </mxCell>
        <mxCell id="sooAV_fpW613uQZeQXmA-72" value="employee_birth_date" style="shape=partialRectangle;connectable=0;fillColor=none;top=0;left=0;bottom=0;right=0;align=left;spacingLeft=6;overflow=hidden;labelBackgroundColor=none;" parent="sooAV_fpW613uQZeQXmA-70" vertex="1">
          <mxGeometry x="30" width="150" height="30" as="geometry">
            <mxRectangle width="150" height="30" as="alternateBounds" />
          </mxGeometry>
        </mxCell>
        <mxCell id="sooAV_fpW613uQZeQXmA-73" value="" style="shape=tableRow;horizontal=0;startSize=0;swimlaneHead=0;swimlaneBody=0;fillColor=none;collapsible=0;dropTarget=0;points=[[0,0.5],[1,0.5]];portConstraint=eastwest;top=0;left=0;right=0;bottom=0;labelBackgroundColor=none;" parent="sooAV_fpW613uQZeQXmA-51" vertex="1">
          <mxGeometry y="240" width="180" height="30" as="geometry" />
        </mxCell>
        <mxCell id="sooAV_fpW613uQZeQXmA-74" value="" style="shape=partialRectangle;connectable=0;fillColor=none;top=0;left=0;bottom=0;right=0;editable=1;overflow=hidden;labelBackgroundColor=none;" parent="sooAV_fpW613uQZeQXmA-73" vertex="1">
          <mxGeometry width="30" height="30" as="geometry">
            <mxRectangle width="30" height="30" as="alternateBounds" />
          </mxGeometry>
        </mxCell>
        <mxCell id="sooAV_fpW613uQZeQXmA-75" value="username" style="shape=partialRectangle;connectable=0;fillColor=none;top=0;left=0;bottom=0;right=0;align=left;spacingLeft=6;overflow=hidden;labelBackgroundColor=none;" parent="sooAV_fpW613uQZeQXmA-73" vertex="1">
          <mxGeometry x="30" width="150" height="30" as="geometry">
            <mxRectangle width="150" height="30" as="alternateBounds" />
          </mxGeometry>
        </mxCell>
        <mxCell id="sooAV_fpW613uQZeQXmA-76" value="ROOM&lt;span&gt;_&lt;/span&gt;&lt;span lang=&quot;EN-US&quot;&gt;TYPES&lt;/span&gt;" style="shape=table;startSize=30;container=1;collapsible=1;childLayout=tableLayout;fixedRows=1;rowLines=0;fontStyle=1;align=center;resizeLast=1;html=1;labelBackgroundColor=none;" parent="1" vertex="1">
          <mxGeometry x="855" y="384" width="180" height="180" as="geometry" />
        </mxCell>
        <mxCell id="sooAV_fpW613uQZeQXmA-77" value="" style="shape=tableRow;horizontal=0;startSize=0;swimlaneHead=0;swimlaneBody=0;fillColor=none;collapsible=0;dropTarget=0;points=[[0,0.5],[1,0.5]];portConstraint=eastwest;top=0;left=0;right=0;bottom=1;labelBackgroundColor=none;" parent="sooAV_fpW613uQZeQXmA-76" vertex="1">
          <mxGeometry y="30" width="180" height="30" as="geometry" />
        </mxCell>
        <mxCell id="sooAV_fpW613uQZeQXmA-78" value="PK" style="shape=partialRectangle;connectable=0;fillColor=none;top=0;left=0;bottom=0;right=0;fontStyle=1;overflow=hidden;whiteSpace=wrap;html=1;labelBackgroundColor=none;" parent="sooAV_fpW613uQZeQXmA-77" vertex="1">
          <mxGeometry width="30" height="30" as="geometry">
            <mxRectangle width="30" height="30" as="alternateBounds" />
          </mxGeometry>
        </mxCell>
        <mxCell id="sooAV_fpW613uQZeQXmA-79" value="&lt;p&gt;room_type_id&lt;/p&gt;" style="shape=partialRectangle;connectable=0;fillColor=none;top=0;left=0;bottom=0;right=0;align=left;spacingLeft=6;fontStyle=5;overflow=hidden;whiteSpace=wrap;html=1;labelBackgroundColor=none;" parent="sooAV_fpW613uQZeQXmA-77" vertex="1">
          <mxGeometry x="30" width="150" height="30" as="geometry">
            <mxRectangle width="150" height="30" as="alternateBounds" />
          </mxGeometry>
        </mxCell>
        <mxCell id="sooAV_fpW613uQZeQXmA-80" value="" style="shape=tableRow;horizontal=0;startSize=0;swimlaneHead=0;swimlaneBody=0;fillColor=none;collapsible=0;dropTarget=0;points=[[0,0.5],[1,0.5]];portConstraint=eastwest;top=0;left=0;right=0;bottom=0;labelBackgroundColor=none;" parent="sooAV_fpW613uQZeQXmA-76" vertex="1">
          <mxGeometry y="60" width="180" height="30" as="geometry" />
        </mxCell>
        <mxCell id="sooAV_fpW613uQZeQXmA-81" value="" style="shape=partialRectangle;connectable=0;fillColor=none;top=0;left=0;bottom=0;right=0;editable=1;overflow=hidden;whiteSpace=wrap;html=1;labelBackgroundColor=none;" parent="sooAV_fpW613uQZeQXmA-80" vertex="1">
          <mxGeometry width="30" height="30" as="geometry">
            <mxRectangle width="30" height="30" as="alternateBounds" />
          </mxGeometry>
        </mxCell>
        <mxCell id="sooAV_fpW613uQZeQXmA-82" value="&lt;p&gt;room_type_capacity&lt;/p&gt;&lt;p&gt;&lt;/p&gt;" style="shape=partialRectangle;connectable=0;fillColor=none;top=0;left=0;bottom=0;right=0;align=left;spacingLeft=6;overflow=hidden;whiteSpace=wrap;html=1;labelBackgroundColor=none;" parent="sooAV_fpW613uQZeQXmA-80" vertex="1">
          <mxGeometry x="30" width="150" height="30" as="geometry">
            <mxRectangle width="150" height="30" as="alternateBounds" />
          </mxGeometry>
        </mxCell>
        <mxCell id="sooAV_fpW613uQZeQXmA-83" value="" style="shape=tableRow;horizontal=0;startSize=0;swimlaneHead=0;swimlaneBody=0;fillColor=none;collapsible=0;dropTarget=0;points=[[0,0.5],[1,0.5]];portConstraint=eastwest;top=0;left=0;right=0;bottom=0;labelBackgroundColor=none;" parent="sooAV_fpW613uQZeQXmA-76" vertex="1">
          <mxGeometry y="90" width="180" height="30" as="geometry" />
        </mxCell>
        <mxCell id="sooAV_fpW613uQZeQXmA-84" value="" style="shape=partialRectangle;connectable=0;fillColor=none;top=0;left=0;bottom=0;right=0;editable=1;overflow=hidden;whiteSpace=wrap;html=1;labelBackgroundColor=none;" parent="sooAV_fpW613uQZeQXmA-83" vertex="1">
          <mxGeometry width="30" height="30" as="geometry">
            <mxRectangle width="30" height="30" as="alternateBounds" />
          </mxGeometry>
        </mxCell>
        <mxCell id="sooAV_fpW613uQZeQXmA-85" value="&lt;p&gt;room_type_name&lt;/p&gt;" style="shape=partialRectangle;connectable=0;fillColor=none;top=0;left=0;bottom=0;right=0;align=left;spacingLeft=6;overflow=hidden;whiteSpace=wrap;html=1;labelBackgroundColor=none;" parent="sooAV_fpW613uQZeQXmA-83" vertex="1">
          <mxGeometry x="30" width="150" height="30" as="geometry">
            <mxRectangle width="150" height="30" as="alternateBounds" />
          </mxGeometry>
        </mxCell>
        <mxCell id="sooAV_fpW613uQZeQXmA-86" value="" style="shape=tableRow;horizontal=0;startSize=0;swimlaneHead=0;swimlaneBody=0;fillColor=none;collapsible=0;dropTarget=0;points=[[0,0.5],[1,0.5]];portConstraint=eastwest;top=0;left=0;right=0;bottom=0;labelBackgroundColor=none;" parent="sooAV_fpW613uQZeQXmA-76" vertex="1">
          <mxGeometry y="120" width="180" height="30" as="geometry" />
        </mxCell>
        <mxCell id="sooAV_fpW613uQZeQXmA-87" value="" style="shape=partialRectangle;connectable=0;fillColor=none;top=0;left=0;bottom=0;right=0;editable=1;overflow=hidden;whiteSpace=wrap;html=1;labelBackgroundColor=none;" parent="sooAV_fpW613uQZeQXmA-86" vertex="1">
          <mxGeometry width="30" height="30" as="geometry">
            <mxRectangle width="30" height="30" as="alternateBounds" />
          </mxGeometry>
        </mxCell>
        <mxCell id="sooAV_fpW613uQZeQXmA-88" value="room_type_description" style="shape=partialRectangle;connectable=0;fillColor=none;top=0;left=0;bottom=0;right=0;align=left;spacingLeft=6;overflow=hidden;whiteSpace=wrap;html=1;labelBackgroundColor=none;" parent="sooAV_fpW613uQZeQXmA-86" vertex="1">
          <mxGeometry x="30" width="150" height="30" as="geometry">
            <mxRectangle width="150" height="30" as="alternateBounds" />
          </mxGeometry>
        </mxCell>
        <mxCell id="sooAV_fpW613uQZeQXmA-95" value="" style="shape=tableRow;horizontal=0;startSize=0;swimlaneHead=0;swimlaneBody=0;fillColor=none;collapsible=0;dropTarget=0;points=[[0,0.5],[1,0.5]];portConstraint=eastwest;top=0;left=0;right=0;bottom=0;labelBackgroundColor=none;" parent="sooAV_fpW613uQZeQXmA-76" vertex="1">
          <mxGeometry y="150" width="180" height="30" as="geometry" />
        </mxCell>
        <mxCell id="sooAV_fpW613uQZeQXmA-96" value="" style="shape=partialRectangle;connectable=0;fillColor=none;top=0;left=0;bottom=0;right=0;editable=1;overflow=hidden;labelBackgroundColor=none;" parent="sooAV_fpW613uQZeQXmA-95" vertex="1">
          <mxGeometry width="30" height="30" as="geometry">
            <mxRectangle width="30" height="30" as="alternateBounds" />
          </mxGeometry>
        </mxCell>
        <mxCell id="sooAV_fpW613uQZeQXmA-97" value="room_type_daily_price" style="shape=partialRectangle;connectable=0;fillColor=none;top=0;left=0;bottom=0;right=0;align=left;spacingLeft=6;overflow=hidden;labelBackgroundColor=none;" parent="sooAV_fpW613uQZeQXmA-95" vertex="1">
          <mxGeometry x="30" width="150" height="30" as="geometry">
            <mxRectangle width="150" height="30" as="alternateBounds" />
          </mxGeometry>
        </mxCell>
        <mxCell id="sooAV_fpW613uQZeQXmA-92" value="" style="shape=tableRow;horizontal=0;startSize=0;swimlaneHead=0;swimlaneBody=0;fillColor=none;collapsible=0;dropTarget=0;points=[[0,0.5],[1,0.5]];portConstraint=eastwest;top=0;left=0;right=0;bottom=0;labelBackgroundColor=none;" parent="sooAV_fpW613uQZeQXmA-76" vertex="1">
          <mxGeometry y="180" width="180" as="geometry" />
        </mxCell>
        <mxCell id="sooAV_fpW613uQZeQXmA-93" value="" style="shape=partialRectangle;connectable=0;fillColor=none;top=0;left=0;bottom=0;right=0;editable=1;overflow=hidden;labelBackgroundColor=none;" parent="sooAV_fpW613uQZeQXmA-92" vertex="1">
          <mxGeometry width="30" as="geometry">
            <mxRectangle width="30" as="alternateBounds" />
          </mxGeometry>
        </mxCell>
        <mxCell id="sooAV_fpW613uQZeQXmA-94" value="" style="shape=partialRectangle;connectable=0;fillColor=none;top=0;left=0;bottom=0;right=0;align=left;spacingLeft=6;overflow=hidden;labelBackgroundColor=none;" parent="sooAV_fpW613uQZeQXmA-92" vertex="1">
          <mxGeometry x="30" width="150" as="geometry">
            <mxRectangle width="150" as="alternateBounds" />
          </mxGeometry>
        </mxCell>
        <mxCell id="sooAV_fpW613uQZeQXmA-98" value="ROOMS" style="shape=table;startSize=30;container=1;collapsible=1;childLayout=tableLayout;fixedRows=1;rowLines=0;fontStyle=1;align=center;resizeLast=1;html=1;labelBackgroundColor=none;" parent="1" vertex="1">
          <mxGeometry x="845" y="609" width="180" height="120" as="geometry" />
        </mxCell>
        <mxCell id="sooAV_fpW613uQZeQXmA-99" value="" style="shape=tableRow;horizontal=0;startSize=0;swimlaneHead=0;swimlaneBody=0;fillColor=none;collapsible=0;dropTarget=0;points=[[0,0.5],[1,0.5]];portConstraint=eastwest;top=0;left=0;right=0;bottom=1;labelBackgroundColor=none;" parent="sooAV_fpW613uQZeQXmA-98" vertex="1">
          <mxGeometry y="30" width="180" height="30" as="geometry" />
        </mxCell>
        <mxCell id="sooAV_fpW613uQZeQXmA-100" value="PK" style="shape=partialRectangle;connectable=0;fillColor=none;top=0;left=0;bottom=0;right=0;fontStyle=1;overflow=hidden;whiteSpace=wrap;html=1;labelBackgroundColor=none;" parent="sooAV_fpW613uQZeQXmA-99" vertex="1">
          <mxGeometry width="30" height="30" as="geometry">
            <mxRectangle width="30" height="30" as="alternateBounds" />
          </mxGeometry>
        </mxCell>
        <mxCell id="sooAV_fpW613uQZeQXmA-101" value="&lt;p&gt;room_id&lt;/p&gt;" style="shape=partialRectangle;connectable=0;fillColor=none;top=0;left=0;bottom=0;right=0;align=left;spacingLeft=6;fontStyle=5;overflow=hidden;whiteSpace=wrap;html=1;labelBackgroundColor=none;" parent="sooAV_fpW613uQZeQXmA-99" vertex="1">
          <mxGeometry x="30" width="150" height="30" as="geometry">
            <mxRectangle width="150" height="30" as="alternateBounds" />
          </mxGeometry>
        </mxCell>
        <mxCell id="tAsxUWpUkhYRrcSbK_Wg-60" value="" style="shape=tableRow;horizontal=0;startSize=0;swimlaneHead=0;swimlaneBody=0;fillColor=none;collapsible=0;dropTarget=0;points=[[0,0.5],[1,0.5]];portConstraint=eastwest;top=0;left=0;right=0;bottom=0;labelBackgroundColor=none;" parent="sooAV_fpW613uQZeQXmA-98" vertex="1">
          <mxGeometry y="60" width="180" height="30" as="geometry" />
        </mxCell>
        <mxCell id="tAsxUWpUkhYRrcSbK_Wg-61" value="FK" style="shape=partialRectangle;connectable=0;fillColor=none;top=0;left=0;bottom=0;right=0;fontStyle=0;overflow=hidden;whiteSpace=wrap;html=1;labelBackgroundColor=none;" parent="tAsxUWpUkhYRrcSbK_Wg-60" vertex="1">
          <mxGeometry width="30" height="30" as="geometry">
            <mxRectangle width="30" height="30" as="alternateBounds" />
          </mxGeometry>
        </mxCell>
        <mxCell id="tAsxUWpUkhYRrcSbK_Wg-62" value="&lt;p&gt;room_room_type_id&lt;/p&gt;" style="shape=partialRectangle;connectable=0;fillColor=none;top=0;left=0;bottom=0;right=0;align=left;spacingLeft=6;fontStyle=0;overflow=hidden;whiteSpace=wrap;html=1;labelBackgroundColor=none;" parent="tAsxUWpUkhYRrcSbK_Wg-60" vertex="1">
          <mxGeometry x="30" width="150" height="30" as="geometry">
            <mxRectangle width="150" height="30" as="alternateBounds" />
          </mxGeometry>
        </mxCell>
        <mxCell id="sooAV_fpW613uQZeQXmA-134" value="" style="shape=tableRow;horizontal=0;startSize=0;swimlaneHead=0;swimlaneBody=0;fillColor=none;collapsible=0;dropTarget=0;points=[[0,0.5],[1,0.5]];portConstraint=eastwest;top=0;left=0;right=0;bottom=0;labelBackgroundColor=none;" parent="sooAV_fpW613uQZeQXmA-98" vertex="1">
          <mxGeometry y="90" width="180" as="geometry" />
        </mxCell>
        <mxCell id="sooAV_fpW613uQZeQXmA-135" value="FK" style="shape=partialRectangle;connectable=0;fillColor=none;top=0;left=0;bottom=0;right=0;fontStyle=0;overflow=hidden;whiteSpace=wrap;html=1;labelBackgroundColor=none;" parent="sooAV_fpW613uQZeQXmA-134" vertex="1">
          <mxGeometry width="30" as="geometry">
            <mxRectangle width="30" as="alternateBounds" />
          </mxGeometry>
        </mxCell>
        <mxCell id="sooAV_fpW613uQZeQXmA-136" value="" style="shape=partialRectangle;connectable=0;fillColor=none;top=0;left=0;bottom=0;right=0;align=left;spacingLeft=6;fontStyle=0;overflow=hidden;whiteSpace=wrap;html=1;labelBackgroundColor=none;" parent="sooAV_fpW613uQZeQXmA-134" vertex="1">
          <mxGeometry x="30" width="150" as="geometry">
            <mxRectangle width="150" as="alternateBounds" />
          </mxGeometry>
        </mxCell>
        <mxCell id="sooAV_fpW613uQZeQXmA-102" value="" style="shape=tableRow;horizontal=0;startSize=0;swimlaneHead=0;swimlaneBody=0;fillColor=none;collapsible=0;dropTarget=0;points=[[0,0.5],[1,0.5]];portConstraint=eastwest;top=0;left=0;right=0;bottom=0;labelBackgroundColor=none;" parent="sooAV_fpW613uQZeQXmA-98" vertex="1">
          <mxGeometry y="90" width="180" height="30" as="geometry" />
        </mxCell>
        <mxCell id="sooAV_fpW613uQZeQXmA-103" value="" style="shape=partialRectangle;connectable=0;fillColor=none;top=0;left=0;bottom=0;right=0;editable=1;overflow=hidden;whiteSpace=wrap;html=1;labelBackgroundColor=none;" parent="sooAV_fpW613uQZeQXmA-102" vertex="1">
          <mxGeometry width="30" height="30" as="geometry">
            <mxRectangle width="30" height="30" as="alternateBounds" />
          </mxGeometry>
        </mxCell>
        <mxCell id="sooAV_fpW613uQZeQXmA-104" value="&lt;p&gt;room_number&lt;/p&gt;" style="shape=partialRectangle;connectable=0;fillColor=none;top=0;left=0;bottom=0;right=0;align=left;spacingLeft=6;overflow=hidden;whiteSpace=wrap;html=1;labelBackgroundColor=none;" parent="sooAV_fpW613uQZeQXmA-102" vertex="1">
          <mxGeometry x="30" width="150" height="30" as="geometry">
            <mxRectangle width="150" height="30" as="alternateBounds" />
          </mxGeometry>
        </mxCell>
        <mxCell id="sooAV_fpW613uQZeQXmA-105" value="" style="shape=tableRow;horizontal=0;startSize=0;swimlaneHead=0;swimlaneBody=0;fillColor=none;collapsible=0;dropTarget=0;points=[[0,0.5],[1,0.5]];portConstraint=eastwest;top=0;left=0;right=0;bottom=0;labelBackgroundColor=none;" parent="sooAV_fpW613uQZeQXmA-98" vertex="1">
          <mxGeometry y="120" width="180" as="geometry" />
        </mxCell>
        <mxCell id="sooAV_fpW613uQZeQXmA-106" value="" style="shape=partialRectangle;connectable=0;fillColor=none;top=0;left=0;bottom=0;right=0;editable=1;overflow=hidden;whiteSpace=wrap;html=1;labelBackgroundColor=none;" parent="sooAV_fpW613uQZeQXmA-105" vertex="1">
          <mxGeometry width="30" as="geometry">
            <mxRectangle width="30" as="alternateBounds" />
          </mxGeometry>
        </mxCell>
        <mxCell id="sooAV_fpW613uQZeQXmA-107" value="" style="shape=partialRectangle;connectable=0;fillColor=none;top=0;left=0;bottom=0;right=0;align=left;spacingLeft=6;overflow=hidden;whiteSpace=wrap;html=1;labelBackgroundColor=none;" parent="sooAV_fpW613uQZeQXmA-105" vertex="1">
          <mxGeometry x="30" width="150" as="geometry">
            <mxRectangle width="150" as="alternateBounds" />
          </mxGeometry>
        </mxCell>
        <mxCell id="sooAV_fpW613uQZeQXmA-108" value="" style="shape=tableRow;horizontal=0;startSize=0;swimlaneHead=0;swimlaneBody=0;fillColor=none;collapsible=0;dropTarget=0;points=[[0,0.5],[1,0.5]];portConstraint=eastwest;top=0;left=0;right=0;bottom=0;labelBackgroundColor=none;" parent="sooAV_fpW613uQZeQXmA-98" vertex="1">
          <mxGeometry y="120" width="180" as="geometry" />
        </mxCell>
        <mxCell id="sooAV_fpW613uQZeQXmA-109" value="" style="shape=partialRectangle;connectable=0;fillColor=none;top=0;left=0;bottom=0;right=0;editable=1;overflow=hidden;whiteSpace=wrap;html=1;labelBackgroundColor=none;" parent="sooAV_fpW613uQZeQXmA-108" vertex="1">
          <mxGeometry width="30" as="geometry">
            <mxRectangle width="30" as="alternateBounds" />
          </mxGeometry>
        </mxCell>
        <mxCell id="sooAV_fpW613uQZeQXmA-110" value="" style="shape=partialRectangle;connectable=0;fillColor=none;top=0;left=0;bottom=0;right=0;align=left;spacingLeft=6;overflow=hidden;whiteSpace=wrap;html=1;labelBackgroundColor=none;" parent="sooAV_fpW613uQZeQXmA-108" vertex="1">
          <mxGeometry x="30" width="150" as="geometry">
            <mxRectangle width="150" as="alternateBounds" />
          </mxGeometry>
        </mxCell>
        <mxCell id="sooAV_fpW613uQZeQXmA-115" value="PHOTO" style="shape=table;startSize=30;container=1;collapsible=1;childLayout=tableLayout;fixedRows=1;rowLines=0;fontStyle=1;align=center;resizeLast=1;html=1;labelBackgroundColor=none;" parent="1" vertex="1">
          <mxGeometry x="855" y="200" width="180" height="120" as="geometry" />
        </mxCell>
        <mxCell id="sooAV_fpW613uQZeQXmA-116" value="" style="shape=tableRow;horizontal=0;startSize=0;swimlaneHead=0;swimlaneBody=0;fillColor=none;collapsible=0;dropTarget=0;points=[[0,0.5],[1,0.5]];portConstraint=eastwest;top=0;left=0;right=0;bottom=1;labelBackgroundColor=none;" parent="sooAV_fpW613uQZeQXmA-115" vertex="1">
          <mxGeometry y="30" width="180" height="30" as="geometry" />
        </mxCell>
        <mxCell id="sooAV_fpW613uQZeQXmA-117" value="PK" style="shape=partialRectangle;connectable=0;fillColor=none;top=0;left=0;bottom=0;right=0;fontStyle=1;overflow=hidden;whiteSpace=wrap;html=1;labelBackgroundColor=none;" parent="sooAV_fpW613uQZeQXmA-116" vertex="1">
          <mxGeometry width="30" height="30" as="geometry">
            <mxRectangle width="30" height="30" as="alternateBounds" />
          </mxGeometry>
        </mxCell>
        <mxCell id="sooAV_fpW613uQZeQXmA-118" value="photo_id" style="shape=partialRectangle;connectable=0;fillColor=none;top=0;left=0;bottom=0;right=0;align=left;spacingLeft=6;fontStyle=5;overflow=hidden;whiteSpace=wrap;html=1;labelBackgroundColor=none;" parent="sooAV_fpW613uQZeQXmA-116" vertex="1">
          <mxGeometry x="30" width="150" height="30" as="geometry">
            <mxRectangle width="150" height="30" as="alternateBounds" />
          </mxGeometry>
        </mxCell>
        <mxCell id="sooAV_fpW613uQZeQXmA-128" value="" style="shape=tableRow;horizontal=0;startSize=0;swimlaneHead=0;swimlaneBody=0;fillColor=none;collapsible=0;dropTarget=0;points=[[0,0.5],[1,0.5]];portConstraint=eastwest;top=0;left=0;right=0;bottom=0;labelBackgroundColor=none;" parent="sooAV_fpW613uQZeQXmA-115" vertex="1">
          <mxGeometry y="60" width="180" height="30" as="geometry" />
        </mxCell>
        <mxCell id="sooAV_fpW613uQZeQXmA-129" value="FK" style="shape=partialRectangle;connectable=0;fillColor=none;top=0;left=0;bottom=0;right=0;fontStyle=0;overflow=hidden;whiteSpace=wrap;html=1;labelBackgroundColor=none;" parent="sooAV_fpW613uQZeQXmA-128" vertex="1">
          <mxGeometry width="30" height="30" as="geometry">
            <mxRectangle width="30" height="30" as="alternateBounds" />
          </mxGeometry>
        </mxCell>
        <mxCell id="sooAV_fpW613uQZeQXmA-130" value="&lt;p&gt;photo_room_type_id&lt;/p&gt;" style="shape=partialRectangle;connectable=0;fillColor=none;top=0;left=0;bottom=0;right=0;align=left;spacingLeft=6;fontStyle=0;overflow=hidden;whiteSpace=wrap;html=1;labelBackgroundColor=none;" parent="sooAV_fpW613uQZeQXmA-128" vertex="1">
          <mxGeometry x="30" width="150" height="30" as="geometry">
            <mxRectangle width="150" height="30" as="alternateBounds" />
          </mxGeometry>
        </mxCell>
        <mxCell id="sooAV_fpW613uQZeQXmA-119" value="" style="shape=tableRow;horizontal=0;startSize=0;swimlaneHead=0;swimlaneBody=0;fillColor=none;collapsible=0;dropTarget=0;points=[[0,0.5],[1,0.5]];portConstraint=eastwest;top=0;left=0;right=0;bottom=0;labelBackgroundColor=none;" parent="sooAV_fpW613uQZeQXmA-115" vertex="1">
          <mxGeometry y="90" width="180" height="30" as="geometry" />
        </mxCell>
        <mxCell id="sooAV_fpW613uQZeQXmA-120" value="" style="shape=partialRectangle;connectable=0;fillColor=none;top=0;left=0;bottom=0;right=0;editable=1;overflow=hidden;whiteSpace=wrap;html=1;labelBackgroundColor=none;" parent="sooAV_fpW613uQZeQXmA-119" vertex="1">
          <mxGeometry width="30" height="30" as="geometry">
            <mxRectangle width="30" height="30" as="alternateBounds" />
          </mxGeometry>
        </mxCell>
        <mxCell id="sooAV_fpW613uQZeQXmA-121" value="&lt;p&gt;photo_source&lt;/p&gt;" style="shape=partialRectangle;connectable=0;fillColor=none;top=0;left=0;bottom=0;right=0;align=left;spacingLeft=6;overflow=hidden;whiteSpace=wrap;html=1;labelBackgroundColor=none;" parent="sooAV_fpW613uQZeQXmA-119" vertex="1">
          <mxGeometry x="30" width="150" height="30" as="geometry">
            <mxRectangle width="150" height="30" as="alternateBounds" />
          </mxGeometry>
        </mxCell>
        <mxCell id="sooAV_fpW613uQZeQXmA-122" value="" style="shape=tableRow;horizontal=0;startSize=0;swimlaneHead=0;swimlaneBody=0;fillColor=none;collapsible=0;dropTarget=0;points=[[0,0.5],[1,0.5]];portConstraint=eastwest;top=0;left=0;right=0;bottom=0;labelBackgroundColor=none;" parent="sooAV_fpW613uQZeQXmA-115" vertex="1">
          <mxGeometry y="120" width="180" as="geometry" />
        </mxCell>
        <mxCell id="sooAV_fpW613uQZeQXmA-123" value="" style="shape=partialRectangle;connectable=0;fillColor=none;top=0;left=0;bottom=0;right=0;editable=1;overflow=hidden;whiteSpace=wrap;html=1;labelBackgroundColor=none;" parent="sooAV_fpW613uQZeQXmA-122" vertex="1">
          <mxGeometry width="30" as="geometry">
            <mxRectangle width="30" as="alternateBounds" />
          </mxGeometry>
        </mxCell>
        <mxCell id="sooAV_fpW613uQZeQXmA-124" value="Row 2" style="shape=partialRectangle;connectable=0;fillColor=none;top=0;left=0;bottom=0;right=0;align=left;spacingLeft=6;overflow=hidden;whiteSpace=wrap;html=1;labelBackgroundColor=none;" parent="sooAV_fpW613uQZeQXmA-122" vertex="1">
          <mxGeometry x="30" width="150" as="geometry">
            <mxRectangle width="150" as="alternateBounds" />
          </mxGeometry>
        </mxCell>
        <mxCell id="sooAV_fpW613uQZeQXmA-125" value="" style="shape=tableRow;horizontal=0;startSize=0;swimlaneHead=0;swimlaneBody=0;fillColor=none;collapsible=0;dropTarget=0;points=[[0,0.5],[1,0.5]];portConstraint=eastwest;top=0;left=0;right=0;bottom=0;labelBackgroundColor=none;" parent="sooAV_fpW613uQZeQXmA-115" vertex="1">
          <mxGeometry y="120" width="180" as="geometry" />
        </mxCell>
        <mxCell id="sooAV_fpW613uQZeQXmA-126" value="" style="shape=partialRectangle;connectable=0;fillColor=none;top=0;left=0;bottom=0;right=0;editable=1;overflow=hidden;whiteSpace=wrap;html=1;labelBackgroundColor=none;" parent="sooAV_fpW613uQZeQXmA-125" vertex="1">
          <mxGeometry width="30" as="geometry">
            <mxRectangle width="30" as="alternateBounds" />
          </mxGeometry>
        </mxCell>
        <mxCell id="sooAV_fpW613uQZeQXmA-127" value="Row 3" style="shape=partialRectangle;connectable=0;fillColor=none;top=0;left=0;bottom=0;right=0;align=left;spacingLeft=6;overflow=hidden;whiteSpace=wrap;html=1;labelBackgroundColor=none;" parent="sooAV_fpW613uQZeQXmA-125" vertex="1">
          <mxGeometry x="30" width="150" as="geometry">
            <mxRectangle width="150" as="alternateBounds" />
          </mxGeometry>
        </mxCell>
        <mxCell id="sooAV_fpW613uQZeQXmA-137" value="SERVICE_TYPES " style="shape=table;startSize=30;container=1;collapsible=1;childLayout=tableLayout;fixedRows=1;rowLines=0;fontStyle=1;align=center;resizeLast=1;html=1;labelBackgroundColor=none;" parent="1" vertex="1">
          <mxGeometry x="355" y="429" width="180" height="180" as="geometry" />
        </mxCell>
        <mxCell id="sooAV_fpW613uQZeQXmA-138" value="" style="shape=tableRow;horizontal=0;startSize=0;swimlaneHead=0;swimlaneBody=0;fillColor=none;collapsible=0;dropTarget=0;points=[[0,0.5],[1,0.5]];portConstraint=eastwest;top=0;left=0;right=0;bottom=1;labelBackgroundColor=none;" parent="sooAV_fpW613uQZeQXmA-137" vertex="1">
          <mxGeometry y="30" width="180" height="30" as="geometry" />
        </mxCell>
        <mxCell id="sooAV_fpW613uQZeQXmA-139" value="PK" style="shape=partialRectangle;connectable=0;fillColor=none;top=0;left=0;bottom=0;right=0;fontStyle=1;overflow=hidden;whiteSpace=wrap;html=1;labelBackgroundColor=none;" parent="sooAV_fpW613uQZeQXmA-138" vertex="1">
          <mxGeometry width="30" height="30" as="geometry">
            <mxRectangle width="30" height="30" as="alternateBounds" />
          </mxGeometry>
        </mxCell>
        <mxCell id="sooAV_fpW613uQZeQXmA-140" value="&lt;p&gt;service_type_id&lt;/p&gt;" style="shape=partialRectangle;connectable=0;fillColor=none;top=0;left=0;bottom=0;right=0;align=left;spacingLeft=6;fontStyle=5;overflow=hidden;whiteSpace=wrap;html=1;labelBackgroundColor=none;" parent="sooAV_fpW613uQZeQXmA-138" vertex="1">
          <mxGeometry x="30" width="150" height="30" as="geometry">
            <mxRectangle width="150" height="30" as="alternateBounds" />
          </mxGeometry>
        </mxCell>
        <mxCell id="sooAV_fpW613uQZeQXmA-153" value="" style="shape=tableRow;horizontal=0;startSize=0;swimlaneHead=0;swimlaneBody=0;fillColor=none;collapsible=0;dropTarget=0;points=[[0,0.5],[1,0.5]];portConstraint=eastwest;top=0;left=0;right=0;bottom=0;labelBackgroundColor=none;" parent="sooAV_fpW613uQZeQXmA-137" vertex="1">
          <mxGeometry y="60" width="180" height="30" as="geometry" />
        </mxCell>
        <mxCell id="sooAV_fpW613uQZeQXmA-154" value="FK" style="shape=partialRectangle;connectable=0;fillColor=none;top=0;left=0;bottom=0;right=0;fontStyle=0;overflow=hidden;whiteSpace=wrap;html=1;labelBackgroundColor=none;" parent="sooAV_fpW613uQZeQXmA-153" vertex="1">
          <mxGeometry width="30" height="30" as="geometry">
            <mxRectangle width="30" height="30" as="alternateBounds" />
          </mxGeometry>
        </mxCell>
        <mxCell id="sooAV_fpW613uQZeQXmA-155" value="&lt;div align=&quot;center&quot;&gt;&lt;table&gt;&lt;tbody&gt;&lt;tr&gt;&lt;td valign=&quot;top&quot;&gt;&lt;p&gt;service_type_employee_id&lt;/p&gt;&lt;/td&gt;&lt;/tr&gt;&lt;/tbody&gt;&lt;/table&gt;&lt;/div&gt;" style="shape=partialRectangle;connectable=0;fillColor=none;top=0;left=0;bottom=0;right=0;align=left;spacingLeft=6;fontStyle=0;overflow=hidden;whiteSpace=wrap;html=1;spacing=-2;labelBackgroundColor=none;" parent="sooAV_fpW613uQZeQXmA-153" vertex="1">
          <mxGeometry x="30" width="150" height="30" as="geometry">
            <mxRectangle width="150" height="30" as="alternateBounds" />
          </mxGeometry>
        </mxCell>
        <mxCell id="sooAV_fpW613uQZeQXmA-141" value="" style="shape=tableRow;horizontal=0;startSize=0;swimlaneHead=0;swimlaneBody=0;fillColor=none;collapsible=0;dropTarget=0;points=[[0,0.5],[1,0.5]];portConstraint=eastwest;top=0;left=0;right=0;bottom=0;labelBackgroundColor=none;" parent="sooAV_fpW613uQZeQXmA-137" vertex="1">
          <mxGeometry y="90" width="180" height="30" as="geometry" />
        </mxCell>
        <mxCell id="sooAV_fpW613uQZeQXmA-142" value="" style="shape=partialRectangle;connectable=0;fillColor=none;top=0;left=0;bottom=0;right=0;editable=1;overflow=hidden;whiteSpace=wrap;html=1;labelBackgroundColor=none;" parent="sooAV_fpW613uQZeQXmA-141" vertex="1">
          <mxGeometry width="30" height="30" as="geometry">
            <mxRectangle width="30" height="30" as="alternateBounds" />
          </mxGeometry>
        </mxCell>
        <mxCell id="sooAV_fpW613uQZeQXmA-143" value="&lt;p&gt;service_type_name&lt;/p&gt;" style="shape=partialRectangle;connectable=0;fillColor=none;top=0;left=0;bottom=0;right=0;align=left;spacingLeft=6;overflow=hidden;whiteSpace=wrap;html=1;labelBackgroundColor=none;" parent="sooAV_fpW613uQZeQXmA-141" vertex="1">
          <mxGeometry x="30" width="150" height="30" as="geometry">
            <mxRectangle width="150" height="30" as="alternateBounds" />
          </mxGeometry>
        </mxCell>
        <mxCell id="sooAV_fpW613uQZeQXmA-144" value="" style="shape=tableRow;horizontal=0;startSize=0;swimlaneHead=0;swimlaneBody=0;fillColor=none;collapsible=0;dropTarget=0;points=[[0,0.5],[1,0.5]];portConstraint=eastwest;top=0;left=0;right=0;bottom=0;labelBackgroundColor=none;" parent="sooAV_fpW613uQZeQXmA-137" vertex="1">
          <mxGeometry y="120" width="180" height="30" as="geometry" />
        </mxCell>
        <mxCell id="sooAV_fpW613uQZeQXmA-145" value="" style="shape=partialRectangle;connectable=0;fillColor=none;top=0;left=0;bottom=0;right=0;editable=1;overflow=hidden;whiteSpace=wrap;html=1;labelBackgroundColor=none;" parent="sooAV_fpW613uQZeQXmA-144" vertex="1">
          <mxGeometry width="30" height="30" as="geometry">
            <mxRectangle width="30" height="30" as="alternateBounds" />
          </mxGeometry>
        </mxCell>
        <mxCell id="sooAV_fpW613uQZeQXmA-146" value="&lt;p&gt;service_type_daily_price&lt;/p&gt;" style="shape=partialRectangle;connectable=0;fillColor=none;top=0;left=0;bottom=0;right=0;align=left;spacingLeft=6;overflow=hidden;whiteSpace=wrap;html=1;labelBackgroundColor=none;" parent="sooAV_fpW613uQZeQXmA-144" vertex="1">
          <mxGeometry x="30" width="150" height="30" as="geometry">
            <mxRectangle width="150" height="30" as="alternateBounds" />
          </mxGeometry>
        </mxCell>
        <mxCell id="sooAV_fpW613uQZeQXmA-147" value="" style="shape=tableRow;horizontal=0;startSize=0;swimlaneHead=0;swimlaneBody=0;fillColor=none;collapsible=0;dropTarget=0;points=[[0,0.5],[1,0.5]];portConstraint=eastwest;top=0;left=0;right=0;bottom=0;labelBackgroundColor=none;" parent="sooAV_fpW613uQZeQXmA-137" vertex="1">
          <mxGeometry y="150" width="180" height="30" as="geometry" />
        </mxCell>
        <mxCell id="sooAV_fpW613uQZeQXmA-148" value="" style="shape=partialRectangle;connectable=0;fillColor=none;top=0;left=0;bottom=0;right=0;editable=1;overflow=hidden;whiteSpace=wrap;html=1;labelBackgroundColor=none;" parent="sooAV_fpW613uQZeQXmA-147" vertex="1">
          <mxGeometry width="30" height="30" as="geometry">
            <mxRectangle width="30" height="30" as="alternateBounds" />
          </mxGeometry>
        </mxCell>
        <mxCell id="sooAV_fpW613uQZeQXmA-149" value="&lt;p&gt;service_type_description&lt;/p&gt;" style="shape=partialRectangle;connectable=0;fillColor=none;top=0;left=0;bottom=0;right=0;align=left;spacingLeft=6;overflow=hidden;whiteSpace=wrap;html=1;labelBackgroundColor=none;" parent="sooAV_fpW613uQZeQXmA-147" vertex="1">
          <mxGeometry x="30" width="150" height="30" as="geometry">
            <mxRectangle width="150" height="30" as="alternateBounds" />
          </mxGeometry>
        </mxCell>
        <mxCell id="sooAV_fpW613uQZeQXmA-156" value="SERVICES" style="shape=table;startSize=30;container=1;collapsible=1;childLayout=tableLayout;fixedRows=1;rowLines=0;fontStyle=1;align=center;resizeLast=1;html=1;spacing=0;labelBackgroundColor=none;" parent="1" vertex="1">
          <mxGeometry x="345" y="179" width="180" height="180" as="geometry" />
        </mxCell>
        <mxCell id="sooAV_fpW613uQZeQXmA-157" value="" style="shape=tableRow;horizontal=0;startSize=0;swimlaneHead=0;swimlaneBody=0;fillColor=none;collapsible=0;dropTarget=0;points=[[0,0.5],[1,0.5]];portConstraint=eastwest;top=0;left=0;right=0;bottom=1;labelBackgroundColor=none;" parent="sooAV_fpW613uQZeQXmA-156" vertex="1">
          <mxGeometry y="30" width="180" height="30" as="geometry" />
        </mxCell>
        <mxCell id="sooAV_fpW613uQZeQXmA-158" value="PK" style="shape=partialRectangle;connectable=0;fillColor=none;top=0;left=0;bottom=0;right=0;fontStyle=1;overflow=hidden;whiteSpace=wrap;html=1;labelBackgroundColor=none;" parent="sooAV_fpW613uQZeQXmA-157" vertex="1">
          <mxGeometry width="30" height="30" as="geometry">
            <mxRectangle width="30" height="30" as="alternateBounds" />
          </mxGeometry>
        </mxCell>
        <mxCell id="sooAV_fpW613uQZeQXmA-159" value="&lt;p&gt;service_id&lt;/p&gt;" style="shape=partialRectangle;connectable=0;fillColor=none;top=0;left=0;bottom=0;right=0;align=left;spacingLeft=6;fontStyle=5;overflow=hidden;whiteSpace=wrap;html=1;labelBackgroundColor=none;" parent="sooAV_fpW613uQZeQXmA-157" vertex="1">
          <mxGeometry x="30" width="150" height="30" as="geometry">
            <mxRectangle width="150" height="30" as="alternateBounds" />
          </mxGeometry>
        </mxCell>
        <mxCell id="tAsxUWpUkhYRrcSbK_Wg-1" value="" style="shape=tableRow;horizontal=0;startSize=0;swimlaneHead=0;swimlaneBody=0;fillColor=none;collapsible=0;dropTarget=0;points=[[0,0.5],[1,0.5]];portConstraint=eastwest;top=0;left=0;right=0;bottom=0;labelBackgroundColor=none;" parent="sooAV_fpW613uQZeQXmA-156" vertex="1">
          <mxGeometry y="60" width="180" height="30" as="geometry" />
        </mxCell>
        <mxCell id="tAsxUWpUkhYRrcSbK_Wg-2" value="FK" style="shape=partialRectangle;connectable=0;fillColor=none;top=0;left=0;bottom=0;right=0;fontStyle=0;overflow=hidden;whiteSpace=wrap;html=1;labelBackgroundColor=none;" parent="tAsxUWpUkhYRrcSbK_Wg-1" vertex="1">
          <mxGeometry width="30" height="30" as="geometry">
            <mxRectangle width="30" height="30" as="alternateBounds" />
          </mxGeometry>
        </mxCell>
        <mxCell id="tAsxUWpUkhYRrcSbK_Wg-3" value="&lt;div align=&quot;center&quot;&gt;&lt;table&gt;&lt;tbody&gt;&lt;tr&gt;&lt;td valign=&quot;top&quot;&gt;&lt;p&gt;service_type_id&lt;/p&gt;&lt;/td&gt;&lt;/tr&gt;&lt;/tbody&gt;&lt;/table&gt;&lt;/div&gt;" style="shape=partialRectangle;connectable=0;fillColor=none;top=0;left=0;bottom=0;right=0;align=left;spacingLeft=6;fontStyle=0;overflow=hidden;whiteSpace=wrap;html=1;horizontal=1;verticalAlign=middle;spacing=0;labelBackgroundColor=none;" parent="tAsxUWpUkhYRrcSbK_Wg-1" vertex="1">
          <mxGeometry x="30" width="150" height="30" as="geometry">
            <mxRectangle width="150" height="30" as="alternateBounds" />
          </mxGeometry>
        </mxCell>
        <mxCell id="tAsxUWpUkhYRrcSbK_Wg-4" value="" style="shape=tableRow;horizontal=0;startSize=0;swimlaneHead=0;swimlaneBody=0;fillColor=none;collapsible=0;dropTarget=0;points=[[0,0.5],[1,0.5]];portConstraint=eastwest;top=0;left=0;right=0;bottom=0;labelBackgroundColor=none;" parent="sooAV_fpW613uQZeQXmA-156" vertex="1">
          <mxGeometry y="90" width="180" height="30" as="geometry" />
        </mxCell>
        <mxCell id="tAsxUWpUkhYRrcSbK_Wg-5" value="FK" style="shape=partialRectangle;connectable=0;fillColor=none;top=0;left=0;bottom=0;right=0;fontStyle=0;overflow=hidden;whiteSpace=wrap;html=1;labelBackgroundColor=none;" parent="tAsxUWpUkhYRrcSbK_Wg-4" vertex="1">
          <mxGeometry width="30" height="30" as="geometry">
            <mxRectangle width="30" height="30" as="alternateBounds" />
          </mxGeometry>
        </mxCell>
        <mxCell id="tAsxUWpUkhYRrcSbK_Wg-6" value="&lt;p&gt;service_guest_id&lt;/p&gt;" style="shape=partialRectangle;connectable=0;fillColor=none;top=0;left=0;bottom=0;right=0;align=left;spacingLeft=6;fontStyle=0;overflow=hidden;whiteSpace=wrap;html=1;spacing=2;labelBackgroundColor=none;" parent="tAsxUWpUkhYRrcSbK_Wg-4" vertex="1">
          <mxGeometry x="30" width="150" height="30" as="geometry">
            <mxRectangle width="150" height="30" as="alternateBounds" />
          </mxGeometry>
        </mxCell>
        <mxCell id="sooAV_fpW613uQZeQXmA-160" value="" style="shape=tableRow;horizontal=0;startSize=0;swimlaneHead=0;swimlaneBody=0;fillColor=none;collapsible=0;dropTarget=0;points=[[0,0.5],[1,0.5]];portConstraint=eastwest;top=0;left=0;right=0;bottom=0;labelBackgroundColor=none;" parent="sooAV_fpW613uQZeQXmA-156" vertex="1">
          <mxGeometry y="120" width="180" height="30" as="geometry" />
        </mxCell>
        <mxCell id="sooAV_fpW613uQZeQXmA-161" value="" style="shape=partialRectangle;connectable=0;fillColor=none;top=0;left=0;bottom=0;right=0;editable=1;overflow=hidden;whiteSpace=wrap;html=1;labelBackgroundColor=none;" parent="sooAV_fpW613uQZeQXmA-160" vertex="1">
          <mxGeometry width="30" height="30" as="geometry">
            <mxRectangle width="30" height="30" as="alternateBounds" />
          </mxGeometry>
        </mxCell>
        <mxCell id="sooAV_fpW613uQZeQXmA-162" value="&lt;div align=&quot;center&quot;&gt;&lt;table&gt;&lt;tbody&gt;&lt;tr&gt;&lt;td valign=&quot;top&quot;&gt;&lt;p&gt;service_start_date&lt;/p&gt;&lt;/td&gt;&lt;/tr&gt;&lt;/tbody&gt;&lt;/table&gt;&lt;/div&gt;" style="shape=partialRectangle;connectable=0;fillColor=none;top=0;left=0;bottom=0;right=0;align=left;spacingLeft=6;overflow=hidden;whiteSpace=wrap;html=1;spacing=-2;labelBackgroundColor=none;" parent="sooAV_fpW613uQZeQXmA-160" vertex="1">
          <mxGeometry x="30" width="150" height="30" as="geometry">
            <mxRectangle width="150" height="30" as="alternateBounds" />
          </mxGeometry>
        </mxCell>
        <mxCell id="sooAV_fpW613uQZeQXmA-163" value="" style="shape=tableRow;horizontal=0;startSize=0;swimlaneHead=0;swimlaneBody=0;fillColor=none;collapsible=0;dropTarget=0;points=[[0,0.5],[1,0.5]];portConstraint=eastwest;top=0;left=0;right=0;bottom=0;labelBackgroundColor=none;" parent="sooAV_fpW613uQZeQXmA-156" vertex="1">
          <mxGeometry y="150" width="180" height="30" as="geometry" />
        </mxCell>
        <mxCell id="sooAV_fpW613uQZeQXmA-164" value="" style="shape=partialRectangle;connectable=0;fillColor=none;top=0;left=0;bottom=0;right=0;editable=1;overflow=hidden;whiteSpace=wrap;html=1;labelBackgroundColor=none;" parent="sooAV_fpW613uQZeQXmA-163" vertex="1">
          <mxGeometry width="30" height="30" as="geometry">
            <mxRectangle width="30" height="30" as="alternateBounds" />
          </mxGeometry>
        </mxCell>
        <mxCell id="sooAV_fpW613uQZeQXmA-165" value="&lt;div align=&quot;center&quot;&gt;&lt;table&gt;&lt;tbody&gt;&lt;tr&gt;&lt;td valign=&quot;top&quot;&gt;&lt;p&gt;service_end_date&lt;/p&gt;&lt;/td&gt;&lt;/tr&gt;&lt;/tbody&gt;&lt;/table&gt;&lt;/div&gt;" style="shape=partialRectangle;connectable=0;fillColor=none;top=0;left=0;bottom=0;right=0;align=left;spacingLeft=6;overflow=hidden;whiteSpace=wrap;html=1;labelBackgroundColor=none;spacing=-2;spacingBottom=0;spacingTop=0;" parent="sooAV_fpW613uQZeQXmA-163" vertex="1">
          <mxGeometry x="30" width="150" height="30" as="geometry">
            <mxRectangle width="150" height="30" as="alternateBounds" />
          </mxGeometry>
        </mxCell>
        <mxCell id="sooAV_fpW613uQZeQXmA-166" value="" style="shape=tableRow;horizontal=0;startSize=0;swimlaneHead=0;swimlaneBody=0;fillColor=none;collapsible=0;dropTarget=0;points=[[0,0.5],[1,0.5]];portConstraint=eastwest;top=0;left=0;right=0;bottom=0;labelBackgroundColor=none;" parent="sooAV_fpW613uQZeQXmA-156" vertex="1">
          <mxGeometry y="180" width="180" as="geometry" />
        </mxCell>
        <mxCell id="sooAV_fpW613uQZeQXmA-167" value="" style="shape=partialRectangle;connectable=0;fillColor=none;top=0;left=0;bottom=0;right=0;editable=1;overflow=hidden;whiteSpace=wrap;html=1;labelBackgroundColor=none;" parent="sooAV_fpW613uQZeQXmA-166" vertex="1">
          <mxGeometry width="30" as="geometry">
            <mxRectangle width="30" as="alternateBounds" />
          </mxGeometry>
        </mxCell>
        <mxCell id="sooAV_fpW613uQZeQXmA-168" value="" style="shape=partialRectangle;connectable=0;fillColor=none;top=0;left=0;bottom=0;right=0;align=left;spacingLeft=6;overflow=hidden;whiteSpace=wrap;html=1;labelBackgroundColor=none;" parent="sooAV_fpW613uQZeQXmA-166" vertex="1">
          <mxGeometry x="30" width="150" as="geometry">
            <mxRectangle width="150" as="alternateBounds" />
          </mxGeometry>
        </mxCell>
        <mxCell id="tAsxUWpUkhYRrcSbK_Wg-7" value="TARIFF&lt;span&gt;_&lt;/span&gt;&lt;span lang=&quot;EN-US&quot;&gt;TYPES&lt;/span&gt;" style="shape=table;startSize=30;container=1;collapsible=1;childLayout=tableLayout;fixedRows=1;rowLines=0;fontStyle=1;align=center;resizeLast=1;html=1;labelBackgroundColor=none;" parent="1" vertex="1">
          <mxGeometry x="585" y="634" width="180" height="150" as="geometry" />
        </mxCell>
        <mxCell id="tAsxUWpUkhYRrcSbK_Wg-8" value="" style="shape=tableRow;horizontal=0;startSize=0;swimlaneHead=0;swimlaneBody=0;fillColor=none;collapsible=0;dropTarget=0;points=[[0,0.5],[1,0.5]];portConstraint=eastwest;top=0;left=0;right=0;bottom=1;labelBackgroundColor=none;" parent="tAsxUWpUkhYRrcSbK_Wg-7" vertex="1">
          <mxGeometry y="30" width="180" height="30" as="geometry" />
        </mxCell>
        <mxCell id="tAsxUWpUkhYRrcSbK_Wg-9" value="PK" style="shape=partialRectangle;connectable=0;fillColor=none;top=0;left=0;bottom=0;right=0;fontStyle=1;overflow=hidden;whiteSpace=wrap;html=1;labelBackgroundColor=none;" parent="tAsxUWpUkhYRrcSbK_Wg-8" vertex="1">
          <mxGeometry width="30" height="30" as="geometry">
            <mxRectangle width="30" height="30" as="alternateBounds" />
          </mxGeometry>
        </mxCell>
        <mxCell id="tAsxUWpUkhYRrcSbK_Wg-10" value="&lt;p&gt;tariff_type_id&lt;/p&gt;" style="shape=partialRectangle;connectable=0;fillColor=none;top=0;left=0;bottom=0;right=0;align=left;spacingLeft=6;fontStyle=5;overflow=hidden;whiteSpace=wrap;html=1;labelBackgroundColor=none;" parent="tAsxUWpUkhYRrcSbK_Wg-8" vertex="1">
          <mxGeometry x="30" width="150" height="30" as="geometry">
            <mxRectangle width="150" height="30" as="alternateBounds" />
          </mxGeometry>
        </mxCell>
        <mxCell id="tAsxUWpUkhYRrcSbK_Wg-11" value="" style="shape=tableRow;horizontal=0;startSize=0;swimlaneHead=0;swimlaneBody=0;fillColor=none;collapsible=0;dropTarget=0;points=[[0,0.5],[1,0.5]];portConstraint=eastwest;top=0;left=0;right=0;bottom=0;labelBackgroundColor=none;" parent="tAsxUWpUkhYRrcSbK_Wg-7" vertex="1">
          <mxGeometry y="60" width="180" height="30" as="geometry" />
        </mxCell>
        <mxCell id="tAsxUWpUkhYRrcSbK_Wg-12" value="" style="shape=partialRectangle;connectable=0;fillColor=none;top=0;left=0;bottom=0;right=0;editable=1;overflow=hidden;whiteSpace=wrap;html=1;labelBackgroundColor=none;" parent="tAsxUWpUkhYRrcSbK_Wg-11" vertex="1">
          <mxGeometry width="30" height="30" as="geometry">
            <mxRectangle width="30" height="30" as="alternateBounds" />
          </mxGeometry>
        </mxCell>
        <mxCell id="tAsxUWpUkhYRrcSbK_Wg-13" value="&lt;p&gt;tariff_type_name&lt;/p&gt;" style="shape=partialRectangle;connectable=0;fillColor=none;top=0;left=0;bottom=0;right=0;align=left;spacingLeft=6;overflow=hidden;whiteSpace=wrap;html=1;labelBackgroundColor=none;" parent="tAsxUWpUkhYRrcSbK_Wg-11" vertex="1">
          <mxGeometry x="30" width="150" height="30" as="geometry">
            <mxRectangle width="150" height="30" as="alternateBounds" />
          </mxGeometry>
        </mxCell>
        <mxCell id="tAsxUWpUkhYRrcSbK_Wg-14" value="" style="shape=tableRow;horizontal=0;startSize=0;swimlaneHead=0;swimlaneBody=0;fillColor=none;collapsible=0;dropTarget=0;points=[[0,0.5],[1,0.5]];portConstraint=eastwest;top=0;left=0;right=0;bottom=0;labelBackgroundColor=none;" parent="tAsxUWpUkhYRrcSbK_Wg-7" vertex="1">
          <mxGeometry y="90" width="180" height="30" as="geometry" />
        </mxCell>
        <mxCell id="tAsxUWpUkhYRrcSbK_Wg-15" value="" style="shape=partialRectangle;connectable=0;fillColor=none;top=0;left=0;bottom=0;right=0;editable=1;overflow=hidden;whiteSpace=wrap;html=1;labelBackgroundColor=none;" parent="tAsxUWpUkhYRrcSbK_Wg-14" vertex="1">
          <mxGeometry width="30" height="30" as="geometry">
            <mxRectangle width="30" height="30" as="alternateBounds" />
          </mxGeometry>
        </mxCell>
        <mxCell id="tAsxUWpUkhYRrcSbK_Wg-16" value="&lt;p&gt;tariff_type_description&lt;/p&gt;" style="shape=partialRectangle;connectable=0;fillColor=none;top=0;left=0;bottom=0;right=0;align=left;spacingLeft=6;overflow=hidden;whiteSpace=wrap;html=1;labelBackgroundColor=none;" parent="tAsxUWpUkhYRrcSbK_Wg-14" vertex="1">
          <mxGeometry x="30" width="150" height="30" as="geometry">
            <mxRectangle width="150" height="30" as="alternateBounds" />
          </mxGeometry>
        </mxCell>
        <mxCell id="tAsxUWpUkhYRrcSbK_Wg-17" value="" style="shape=tableRow;horizontal=0;startSize=0;swimlaneHead=0;swimlaneBody=0;fillColor=none;collapsible=0;dropTarget=0;points=[[0,0.5],[1,0.5]];portConstraint=eastwest;top=0;left=0;right=0;bottom=0;labelBackgroundColor=none;" parent="tAsxUWpUkhYRrcSbK_Wg-7" vertex="1">
          <mxGeometry y="120" width="180" height="30" as="geometry" />
        </mxCell>
        <mxCell id="tAsxUWpUkhYRrcSbK_Wg-18" value="" style="shape=partialRectangle;connectable=0;fillColor=none;top=0;left=0;bottom=0;right=0;editable=1;overflow=hidden;whiteSpace=wrap;html=1;labelBackgroundColor=none;" parent="tAsxUWpUkhYRrcSbK_Wg-17" vertex="1">
          <mxGeometry width="30" height="30" as="geometry">
            <mxRectangle width="30" height="30" as="alternateBounds" />
          </mxGeometry>
        </mxCell>
        <mxCell id="tAsxUWpUkhYRrcSbK_Wg-19" value="&lt;p&gt;tariff_type_daily_price&lt;/p&gt;" style="shape=partialRectangle;connectable=0;fillColor=none;top=0;left=0;bottom=0;right=0;align=left;spacingLeft=6;overflow=hidden;whiteSpace=wrap;html=1;labelBackgroundColor=none;" parent="tAsxUWpUkhYRrcSbK_Wg-17" vertex="1">
          <mxGeometry x="30" width="150" height="30" as="geometry">
            <mxRectangle width="150" height="30" as="alternateBounds" />
          </mxGeometry>
        </mxCell>
        <mxCell id="tAsxUWpUkhYRrcSbK_Wg-20" value="BOOKING&lt;span&gt;_&lt;/span&gt;&lt;span lang=&quot;EN-US&quot;&gt;STATE&lt;/span&gt;" style="shape=table;startSize=30;container=1;collapsible=1;childLayout=tableLayout;fixedRows=1;rowLines=0;fontStyle=1;align=center;resizeLast=1;html=1;labelBackgroundColor=none;" parent="1" vertex="1">
          <mxGeometry x="355" y="650" width="180" height="90" as="geometry" />
        </mxCell>
        <mxCell id="tAsxUWpUkhYRrcSbK_Wg-21" value="" style="shape=tableRow;horizontal=0;startSize=0;swimlaneHead=0;swimlaneBody=0;fillColor=none;collapsible=0;dropTarget=0;points=[[0,0.5],[1,0.5]];portConstraint=eastwest;top=0;left=0;right=0;bottom=1;labelBackgroundColor=none;" parent="tAsxUWpUkhYRrcSbK_Wg-20" vertex="1">
          <mxGeometry y="30" width="180" height="30" as="geometry" />
        </mxCell>
        <mxCell id="tAsxUWpUkhYRrcSbK_Wg-22" value="PK" style="shape=partialRectangle;connectable=0;fillColor=none;top=0;left=0;bottom=0;right=0;fontStyle=1;overflow=hidden;whiteSpace=wrap;html=1;labelBackgroundColor=none;" parent="tAsxUWpUkhYRrcSbK_Wg-21" vertex="1">
          <mxGeometry width="30" height="30" as="geometry">
            <mxRectangle width="30" height="30" as="alternateBounds" />
          </mxGeometry>
        </mxCell>
        <mxCell id="tAsxUWpUkhYRrcSbK_Wg-23" value="&lt;p&gt;booking_state_id&lt;/p&gt;" style="shape=partialRectangle;connectable=0;fillColor=none;top=0;left=0;bottom=0;right=0;align=left;spacingLeft=6;fontStyle=5;overflow=hidden;whiteSpace=wrap;html=1;labelBackgroundColor=none;" parent="tAsxUWpUkhYRrcSbK_Wg-21" vertex="1">
          <mxGeometry x="30" width="150" height="30" as="geometry">
            <mxRectangle width="150" height="30" as="alternateBounds" />
          </mxGeometry>
        </mxCell>
        <mxCell id="tAsxUWpUkhYRrcSbK_Wg-24" value="" style="shape=tableRow;horizontal=0;startSize=0;swimlaneHead=0;swimlaneBody=0;fillColor=none;collapsible=0;dropTarget=0;points=[[0,0.5],[1,0.5]];portConstraint=eastwest;top=0;left=0;right=0;bottom=0;labelBackgroundColor=none;" parent="tAsxUWpUkhYRrcSbK_Wg-20" vertex="1">
          <mxGeometry y="60" width="180" height="30" as="geometry" />
        </mxCell>
        <mxCell id="tAsxUWpUkhYRrcSbK_Wg-25" value="" style="shape=partialRectangle;connectable=0;fillColor=none;top=0;left=0;bottom=0;right=0;editable=1;overflow=hidden;whiteSpace=wrap;html=1;labelBackgroundColor=none;" parent="tAsxUWpUkhYRrcSbK_Wg-24" vertex="1">
          <mxGeometry width="30" height="30" as="geometry">
            <mxRectangle width="30" height="30" as="alternateBounds" />
          </mxGeometry>
        </mxCell>
        <mxCell id="tAsxUWpUkhYRrcSbK_Wg-26" value="&lt;p&gt;booking_state&lt;/p&gt;" style="shape=partialRectangle;connectable=0;fillColor=none;top=0;left=0;bottom=0;right=0;align=left;spacingLeft=6;overflow=hidden;whiteSpace=wrap;html=1;labelBackgroundColor=none;" parent="tAsxUWpUkhYRrcSbK_Wg-24" vertex="1">
          <mxGeometry x="30" width="150" height="30" as="geometry">
            <mxRectangle width="150" height="30" as="alternateBounds" />
          </mxGeometry>
        </mxCell>
        <mxCell id="tAsxUWpUkhYRrcSbK_Wg-27" value="" style="shape=tableRow;horizontal=0;startSize=0;swimlaneHead=0;swimlaneBody=0;fillColor=none;collapsible=0;dropTarget=0;points=[[0,0.5],[1,0.5]];portConstraint=eastwest;top=0;left=0;right=0;bottom=0;labelBackgroundColor=none;" parent="tAsxUWpUkhYRrcSbK_Wg-20" vertex="1">
          <mxGeometry y="90" width="180" as="geometry" />
        </mxCell>
        <mxCell id="tAsxUWpUkhYRrcSbK_Wg-28" value="" style="shape=partialRectangle;connectable=0;fillColor=none;top=0;left=0;bottom=0;right=0;editable=1;overflow=hidden;whiteSpace=wrap;html=1;labelBackgroundColor=none;" parent="tAsxUWpUkhYRrcSbK_Wg-27" vertex="1">
          <mxGeometry width="30" as="geometry">
            <mxRectangle width="30" as="alternateBounds" />
          </mxGeometry>
        </mxCell>
        <mxCell id="tAsxUWpUkhYRrcSbK_Wg-29" value="Row 2" style="shape=partialRectangle;connectable=0;fillColor=none;top=0;left=0;bottom=0;right=0;align=left;spacingLeft=6;overflow=hidden;whiteSpace=wrap;html=1;labelBackgroundColor=none;" parent="tAsxUWpUkhYRrcSbK_Wg-27" vertex="1">
          <mxGeometry x="30" width="150" as="geometry">
            <mxRectangle width="150" as="alternateBounds" />
          </mxGeometry>
        </mxCell>
        <mxCell id="tAsxUWpUkhYRrcSbK_Wg-30" value="" style="shape=tableRow;horizontal=0;startSize=0;swimlaneHead=0;swimlaneBody=0;fillColor=none;collapsible=0;dropTarget=0;points=[[0,0.5],[1,0.5]];portConstraint=eastwest;top=0;left=0;right=0;bottom=0;labelBackgroundColor=none;" parent="tAsxUWpUkhYRrcSbK_Wg-20" vertex="1">
          <mxGeometry y="90" width="180" as="geometry" />
        </mxCell>
        <mxCell id="tAsxUWpUkhYRrcSbK_Wg-31" value="" style="shape=partialRectangle;connectable=0;fillColor=none;top=0;left=0;bottom=0;right=0;editable=1;overflow=hidden;whiteSpace=wrap;html=1;labelBackgroundColor=none;" parent="tAsxUWpUkhYRrcSbK_Wg-30" vertex="1">
          <mxGeometry width="30" as="geometry">
            <mxRectangle width="30" as="alternateBounds" />
          </mxGeometry>
        </mxCell>
        <mxCell id="tAsxUWpUkhYRrcSbK_Wg-32" value="" style="shape=partialRectangle;connectable=0;fillColor=none;top=0;left=0;bottom=0;right=0;align=left;spacingLeft=6;overflow=hidden;whiteSpace=wrap;html=1;labelBackgroundColor=none;" parent="tAsxUWpUkhYRrcSbK_Wg-30" vertex="1">
          <mxGeometry x="30" width="150" as="geometry">
            <mxRectangle width="150" as="alternateBounds" />
          </mxGeometry>
        </mxCell>
        <mxCell id="tAsxUWpUkhYRrcSbK_Wg-33" value="BOOKING" style="shape=table;startSize=30;container=1;collapsible=1;childLayout=tableLayout;fixedRows=1;rowLines=0;fontStyle=1;align=center;resizeLast=1;html=1;labelBackgroundColor=none;" parent="1" vertex="1">
          <mxGeometry x="585" y="359" width="180" height="240" as="geometry" />
        </mxCell>
        <mxCell id="tAsxUWpUkhYRrcSbK_Wg-34" value="" style="shape=tableRow;horizontal=0;startSize=0;swimlaneHead=0;swimlaneBody=0;fillColor=none;collapsible=0;dropTarget=0;points=[[0,0.5],[1,0.5]];portConstraint=eastwest;top=0;left=0;right=0;bottom=1;labelBackgroundColor=none;" parent="tAsxUWpUkhYRrcSbK_Wg-33" vertex="1">
          <mxGeometry y="30" width="180" height="30" as="geometry" />
        </mxCell>
        <mxCell id="tAsxUWpUkhYRrcSbK_Wg-35" value="PK" style="shape=partialRectangle;connectable=0;fillColor=none;top=0;left=0;bottom=0;right=0;fontStyle=1;overflow=hidden;whiteSpace=wrap;html=1;labelBackgroundColor=none;" parent="tAsxUWpUkhYRrcSbK_Wg-34" vertex="1">
          <mxGeometry width="30" height="30" as="geometry">
            <mxRectangle width="30" height="30" as="alternateBounds" />
          </mxGeometry>
        </mxCell>
        <mxCell id="tAsxUWpUkhYRrcSbK_Wg-36" value="&lt;p&gt;booking_id&lt;/p&gt;" style="shape=partialRectangle;connectable=0;fillColor=none;top=0;left=0;bottom=0;right=0;align=left;spacingLeft=6;fontStyle=5;overflow=hidden;whiteSpace=wrap;html=1;labelBackgroundColor=none;" parent="tAsxUWpUkhYRrcSbK_Wg-34" vertex="1">
          <mxGeometry x="30" width="150" height="30" as="geometry">
            <mxRectangle width="150" height="30" as="alternateBounds" />
          </mxGeometry>
        </mxCell>
        <mxCell id="tAsxUWpUkhYRrcSbK_Wg-46" value="" style="shape=tableRow;horizontal=0;startSize=0;swimlaneHead=0;swimlaneBody=0;fillColor=none;collapsible=0;dropTarget=0;points=[[0,0.5],[1,0.5]];portConstraint=eastwest;top=0;left=0;right=0;bottom=0;labelBackgroundColor=none;" parent="tAsxUWpUkhYRrcSbK_Wg-33" vertex="1">
          <mxGeometry y="60" width="180" height="30" as="geometry" />
        </mxCell>
        <mxCell id="tAsxUWpUkhYRrcSbK_Wg-47" value="FK" style="shape=partialRectangle;connectable=0;fillColor=none;top=0;left=0;bottom=0;right=0;fontStyle=0;overflow=hidden;whiteSpace=wrap;html=1;labelBackgroundColor=none;" parent="tAsxUWpUkhYRrcSbK_Wg-46" vertex="1">
          <mxGeometry width="30" height="30" as="geometry">
            <mxRectangle width="30" height="30" as="alternateBounds" />
          </mxGeometry>
        </mxCell>
        <mxCell id="tAsxUWpUkhYRrcSbK_Wg-48" value="&lt;p&gt;booking_room_id&lt;/p&gt;" style="shape=partialRectangle;connectable=0;fillColor=none;top=0;left=0;bottom=0;right=0;align=left;spacingLeft=6;fontStyle=0;overflow=hidden;whiteSpace=wrap;html=1;labelBackgroundColor=none;" parent="tAsxUWpUkhYRrcSbK_Wg-46" vertex="1">
          <mxGeometry x="30" width="150" height="30" as="geometry">
            <mxRectangle width="150" height="30" as="alternateBounds" />
          </mxGeometry>
        </mxCell>
        <mxCell id="tAsxUWpUkhYRrcSbK_Wg-49" value="" style="shape=tableRow;horizontal=0;startSize=0;swimlaneHead=0;swimlaneBody=0;fillColor=none;collapsible=0;dropTarget=0;points=[[0,0.5],[1,0.5]];portConstraint=eastwest;top=0;left=0;right=0;bottom=0;labelBackgroundColor=none;" parent="tAsxUWpUkhYRrcSbK_Wg-33" vertex="1">
          <mxGeometry y="90" width="180" height="30" as="geometry" />
        </mxCell>
        <mxCell id="tAsxUWpUkhYRrcSbK_Wg-50" value="FK" style="shape=partialRectangle;connectable=0;fillColor=none;top=0;left=0;bottom=0;right=0;fontStyle=0;overflow=hidden;whiteSpace=wrap;html=1;labelBackgroundColor=none;" parent="tAsxUWpUkhYRrcSbK_Wg-49" vertex="1">
          <mxGeometry width="30" height="30" as="geometry">
            <mxRectangle width="30" height="30" as="alternateBounds" />
          </mxGeometry>
        </mxCell>
        <mxCell id="tAsxUWpUkhYRrcSbK_Wg-51" value="&lt;p&gt;booking_guest_id&lt;/p&gt;" style="shape=partialRectangle;connectable=0;fillColor=none;top=0;left=0;bottom=0;right=0;align=left;spacingLeft=6;fontStyle=0;overflow=hidden;whiteSpace=wrap;html=1;labelBackgroundColor=none;" parent="tAsxUWpUkhYRrcSbK_Wg-49" vertex="1">
          <mxGeometry x="30" width="150" height="30" as="geometry">
            <mxRectangle width="150" height="30" as="alternateBounds" />
          </mxGeometry>
        </mxCell>
        <mxCell id="tAsxUWpUkhYRrcSbK_Wg-52" value="" style="shape=tableRow;horizontal=0;startSize=0;swimlaneHead=0;swimlaneBody=0;fillColor=none;collapsible=0;dropTarget=0;points=[[0,0.5],[1,0.5]];portConstraint=eastwest;top=0;left=0;right=0;bottom=0;labelBackgroundColor=none;" parent="tAsxUWpUkhYRrcSbK_Wg-33" vertex="1">
          <mxGeometry y="120" width="180" height="30" as="geometry" />
        </mxCell>
        <mxCell id="tAsxUWpUkhYRrcSbK_Wg-53" value="FK" style="shape=partialRectangle;connectable=0;fillColor=none;top=0;left=0;bottom=0;right=0;fontStyle=0;overflow=hidden;whiteSpace=wrap;html=1;labelBackgroundColor=none;" parent="tAsxUWpUkhYRrcSbK_Wg-52" vertex="1">
          <mxGeometry width="30" height="30" as="geometry">
            <mxRectangle width="30" height="30" as="alternateBounds" />
          </mxGeometry>
        </mxCell>
        <mxCell id="tAsxUWpUkhYRrcSbK_Wg-54" value="&lt;p&gt;booking_tariff_id&lt;/p&gt;" style="shape=partialRectangle;connectable=0;fillColor=none;top=0;left=0;bottom=0;right=0;align=left;spacingLeft=6;fontStyle=0;overflow=hidden;whiteSpace=wrap;html=1;labelBackgroundColor=none;" parent="tAsxUWpUkhYRrcSbK_Wg-52" vertex="1">
          <mxGeometry x="30" width="150" height="30" as="geometry">
            <mxRectangle width="150" height="30" as="alternateBounds" />
          </mxGeometry>
        </mxCell>
        <mxCell id="tAsxUWpUkhYRrcSbK_Wg-55" value="" style="shape=tableRow;horizontal=0;startSize=0;swimlaneHead=0;swimlaneBody=0;fillColor=none;collapsible=0;dropTarget=0;points=[[0,0.5],[1,0.5]];portConstraint=eastwest;top=0;left=0;right=0;bottom=0;labelBackgroundColor=none;" parent="tAsxUWpUkhYRrcSbK_Wg-33" vertex="1">
          <mxGeometry y="150" width="180" height="30" as="geometry" />
        </mxCell>
        <mxCell id="tAsxUWpUkhYRrcSbK_Wg-56" value="FK" style="shape=partialRectangle;connectable=0;fillColor=none;top=0;left=0;bottom=0;right=0;fontStyle=0;overflow=hidden;whiteSpace=wrap;html=1;labelBackgroundColor=none;" parent="tAsxUWpUkhYRrcSbK_Wg-55" vertex="1">
          <mxGeometry width="30" height="30" as="geometry">
            <mxRectangle width="30" height="30" as="alternateBounds" />
          </mxGeometry>
        </mxCell>
        <mxCell id="tAsxUWpUkhYRrcSbK_Wg-57" value="&lt;p&gt;booking_state_id&lt;/p&gt;_" style="shape=partialRectangle;connectable=0;fillColor=none;top=0;left=0;bottom=0;right=0;align=left;spacingLeft=6;fontStyle=0;overflow=hidden;whiteSpace=wrap;html=1;labelBackgroundColor=none;" parent="tAsxUWpUkhYRrcSbK_Wg-55" vertex="1">
          <mxGeometry x="30" width="150" height="30" as="geometry">
            <mxRectangle width="150" height="30" as="alternateBounds" />
          </mxGeometry>
        </mxCell>
        <mxCell id="tAsxUWpUkhYRrcSbK_Wg-37" value="" style="shape=tableRow;horizontal=0;startSize=0;swimlaneHead=0;swimlaneBody=0;fillColor=none;collapsible=0;dropTarget=0;points=[[0,0.5],[1,0.5]];portConstraint=eastwest;top=0;left=0;right=0;bottom=0;labelBackgroundColor=none;" parent="tAsxUWpUkhYRrcSbK_Wg-33" vertex="1">
          <mxGeometry y="180" width="180" height="30" as="geometry" />
        </mxCell>
        <mxCell id="tAsxUWpUkhYRrcSbK_Wg-38" value="" style="shape=partialRectangle;connectable=0;fillColor=none;top=0;left=0;bottom=0;right=0;editable=1;overflow=hidden;whiteSpace=wrap;html=1;labelBackgroundColor=none;" parent="tAsxUWpUkhYRrcSbK_Wg-37" vertex="1">
          <mxGeometry width="30" height="30" as="geometry">
            <mxRectangle width="30" height="30" as="alternateBounds" />
          </mxGeometry>
        </mxCell>
        <mxCell id="tAsxUWpUkhYRrcSbK_Wg-39" value="&lt;div align=&quot;center&quot;&gt;&lt;table&gt;&lt;tbody&gt;&lt;tr&gt;&lt;td valign=&quot;top&quot;&gt;&lt;p&gt;booking_start_date&lt;/p&gt;&lt;/td&gt;&lt;/tr&gt;&lt;/tbody&gt;&lt;/table&gt;&lt;/div&gt;" style="shape=partialRectangle;connectable=0;fillColor=none;top=0;left=0;bottom=0;right=0;align=left;spacingLeft=6;overflow=hidden;whiteSpace=wrap;html=1;spacing=-2;labelBackgroundColor=none;" parent="tAsxUWpUkhYRrcSbK_Wg-37" vertex="1">
          <mxGeometry x="30" width="150" height="30" as="geometry">
            <mxRectangle width="150" height="30" as="alternateBounds" />
          </mxGeometry>
        </mxCell>
        <mxCell id="tAsxUWpUkhYRrcSbK_Wg-40" value="" style="shape=tableRow;horizontal=0;startSize=0;swimlaneHead=0;swimlaneBody=0;fillColor=none;collapsible=0;dropTarget=0;points=[[0,0.5],[1,0.5]];portConstraint=eastwest;top=0;left=0;right=0;bottom=0;labelBackgroundColor=none;" parent="tAsxUWpUkhYRrcSbK_Wg-33" vertex="1">
          <mxGeometry y="210" width="180" height="30" as="geometry" />
        </mxCell>
        <mxCell id="tAsxUWpUkhYRrcSbK_Wg-41" value="" style="shape=partialRectangle;connectable=0;fillColor=none;top=0;left=0;bottom=0;right=0;editable=1;overflow=hidden;whiteSpace=wrap;html=1;labelBackgroundColor=none;" parent="tAsxUWpUkhYRrcSbK_Wg-40" vertex="1">
          <mxGeometry width="30" height="30" as="geometry">
            <mxRectangle width="30" height="30" as="alternateBounds" />
          </mxGeometry>
        </mxCell>
        <mxCell id="tAsxUWpUkhYRrcSbK_Wg-42" value="&lt;div align=&quot;center&quot;&gt;&lt;table&gt;&lt;tbody&gt;&lt;tr&gt;&lt;td valign=&quot;top&quot;&gt;&lt;p&gt;booking_end_date&lt;/p&gt;&lt;/td&gt;&lt;/tr&gt;&lt;/tbody&gt;&lt;/table&gt;&lt;/div&gt;" style="shape=partialRectangle;connectable=0;fillColor=none;top=0;left=0;bottom=0;right=0;align=left;spacingLeft=6;overflow=hidden;whiteSpace=wrap;html=1;spacing=-2;labelBackgroundColor=none;" parent="tAsxUWpUkhYRrcSbK_Wg-40" vertex="1">
          <mxGeometry x="30" width="150" height="30" as="geometry">
            <mxRectangle width="150" height="30" as="alternateBounds" />
          </mxGeometry>
        </mxCell>
        <mxCell id="tAsxUWpUkhYRrcSbK_Wg-43" value="" style="shape=tableRow;horizontal=0;startSize=0;swimlaneHead=0;swimlaneBody=0;fillColor=none;collapsible=0;dropTarget=0;points=[[0,0.5],[1,0.5]];portConstraint=eastwest;top=0;left=0;right=0;bottom=0;labelBackgroundColor=none;" parent="tAsxUWpUkhYRrcSbK_Wg-33" vertex="1">
          <mxGeometry y="240" width="180" as="geometry" />
        </mxCell>
        <mxCell id="tAsxUWpUkhYRrcSbK_Wg-44" value="" style="shape=partialRectangle;connectable=0;fillColor=none;top=0;left=0;bottom=0;right=0;editable=1;overflow=hidden;whiteSpace=wrap;html=1;labelBackgroundColor=none;" parent="tAsxUWpUkhYRrcSbK_Wg-43" vertex="1">
          <mxGeometry width="30" as="geometry">
            <mxRectangle width="30" as="alternateBounds" />
          </mxGeometry>
        </mxCell>
        <mxCell id="tAsxUWpUkhYRrcSbK_Wg-45" value="Row 3" style="shape=partialRectangle;connectable=0;fillColor=none;top=0;left=0;bottom=0;right=0;align=left;spacingLeft=6;overflow=hidden;whiteSpace=wrap;html=1;labelBackgroundColor=none;" parent="tAsxUWpUkhYRrcSbK_Wg-43" vertex="1">
          <mxGeometry x="30" width="150" as="geometry">
            <mxRectangle width="150" as="alternateBounds" />
          </mxGeometry>
        </mxCell>
        <mxCell id="tAsxUWpUkhYRrcSbK_Wg-58" style="edgeStyle=orthogonalEdgeStyle;rounded=0;orthogonalLoop=1;jettySize=auto;html=1;startArrow=none;startFill=0;endArrow=ERoneToMany;endFill=0;exitX=1;exitY=0.5;exitDx=0;exitDy=0;labelBackgroundColor=none;fontColor=default;" parent="1" source="sooAV_fpW613uQZeQXmA-77" target="tAsxUWpUkhYRrcSbK_Wg-60" edge="1">
          <mxGeometry relative="1" as="geometry">
            <Array as="points">
              <mxPoint x="1065" y="429" />
              <mxPoint x="1065" y="689" />
            </Array>
          </mxGeometry>
        </mxCell>
        <mxCell id="tAsxUWpUkhYRrcSbK_Wg-66" style="edgeStyle=orthogonalEdgeStyle;rounded=0;orthogonalLoop=1;jettySize=auto;html=1;endArrow=ERoneToMany;endFill=0;labelBackgroundColor=none;fontColor=default;" parent="1" source="sooAV_fpW613uQZeQXmA-2" target="tAsxUWpUkhYRrcSbK_Wg-4" edge="1">
          <mxGeometry relative="1" as="geometry" />
        </mxCell>
        <mxCell id="tAsxUWpUkhYRrcSbK_Wg-67" style="edgeStyle=orthogonalEdgeStyle;rounded=0;orthogonalLoop=1;jettySize=auto;html=1;endArrow=ERoneToMany;endFill=0;labelBackgroundColor=none;fontColor=default;" parent="1" source="sooAV_fpW613uQZeQXmA-52" target="sooAV_fpW613uQZeQXmA-153" edge="1">
          <mxGeometry relative="1" as="geometry">
            <Array as="points">
              <mxPoint x="315" y="415" />
              <mxPoint x="315" y="504" />
            </Array>
          </mxGeometry>
        </mxCell>
        <mxCell id="tAsxUWpUkhYRrcSbK_Wg-70" style="edgeStyle=orthogonalEdgeStyle;rounded=0;orthogonalLoop=1;jettySize=auto;html=1;exitX=1;exitY=0.5;exitDx=0;exitDy=0;endArrow=ERoneToMany;endFill=0;labelBackgroundColor=none;fontColor=default;" parent="1" source="tAsxUWpUkhYRrcSbK_Wg-8" target="tAsxUWpUkhYRrcSbK_Wg-52" edge="1">
          <mxGeometry relative="1" as="geometry" />
        </mxCell>
        <mxCell id="tAsxUWpUkhYRrcSbK_Wg-71" style="edgeStyle=orthogonalEdgeStyle;rounded=0;orthogonalLoop=1;jettySize=auto;html=1;endArrow=ERoneToMany;endFill=0;labelBackgroundColor=none;fontColor=default;" parent="1" source="tAsxUWpUkhYRrcSbK_Wg-21" target="tAsxUWpUkhYRrcSbK_Wg-55" edge="1">
          <mxGeometry relative="1" as="geometry" />
        </mxCell>
        <mxCell id="tAsxUWpUkhYRrcSbK_Wg-72" style="edgeStyle=orthogonalEdgeStyle;rounded=0;orthogonalLoop=1;jettySize=auto;html=1;entryX=0;entryY=0.5;entryDx=0;entryDy=0;endArrow=ERoneToMany;endFill=0;labelBackgroundColor=none;fontColor=default;" parent="1" source="sooAV_fpW613uQZeQXmA-77" target="sooAV_fpW613uQZeQXmA-128" edge="1">
          <mxGeometry relative="1" as="geometry">
            <Array as="points">
              <mxPoint x="835" y="429" />
              <mxPoint x="835" y="275" />
            </Array>
          </mxGeometry>
        </mxCell>
        <mxCell id="tAsxUWpUkhYRrcSbK_Wg-73" style="edgeStyle=orthogonalEdgeStyle;rounded=0;orthogonalLoop=1;jettySize=auto;html=1;entryX=0;entryY=0.5;entryDx=0;entryDy=0;endArrow=ERoneToMany;endFill=0;labelBackgroundColor=none;fontColor=default;" parent="1" source="sooAV_fpW613uQZeQXmA-2" target="tAsxUWpUkhYRrcSbK_Wg-49" edge="1">
          <mxGeometry relative="1" as="geometry">
            <Array as="points">
              <mxPoint x="565" y="210" />
              <mxPoint x="565" y="464" />
            </Array>
          </mxGeometry>
        </mxCell>
        <mxCell id="tAsxUWpUkhYRrcSbK_Wg-74" style="edgeStyle=orthogonalEdgeStyle;rounded=0;orthogonalLoop=1;jettySize=auto;html=1;entryX=1;entryY=0.5;entryDx=0;entryDy=0;endArrow=ERoneToMany;endFill=0;labelBackgroundColor=none;fontColor=default;" parent="1" source="sooAV_fpW613uQZeQXmA-99" target="tAsxUWpUkhYRrcSbK_Wg-34" edge="1">
          <mxGeometry relative="1" as="geometry">
            <Array as="points">
              <mxPoint x="815" y="654" />
              <mxPoint x="815" y="404" />
            </Array>
          </mxGeometry>
        </mxCell>
        <mxCell id="tAsxUWpUkhYRrcSbK_Wg-75" style="edgeStyle=orthogonalEdgeStyle;rounded=0;orthogonalLoop=1;jettySize=auto;html=1;entryX=0;entryY=0.5;entryDx=0;entryDy=0;endArrow=ERoneToMany;endFill=0;labelBackgroundColor=none;fontColor=default;" parent="1" source="sooAV_fpW613uQZeQXmA-138" target="tAsxUWpUkhYRrcSbK_Wg-1" edge="1">
          <mxGeometry relative="1" as="geometry" />
        </mxCell>
        <mxCell id="vMOTaNs-PnMBThvRDVrO-3" value="Администратор" style="shape=umlActor;verticalLabelPosition=bottom;verticalAlign=top;html=1;outlineConnect=0;" parent="1" vertex="1">
          <mxGeometry x="132" y="1228" width="30" height="60" as="geometry" />
        </mxCell>
        <mxCell id="vMOTaNs-PnMBThvRDVrO-4" value="Гость" style="shape=umlActor;verticalLabelPosition=bottom;verticalAlign=top;html=1;outlineConnect=0;" parent="1" vertex="1">
          <mxGeometry x="375" y="1228" width="30" height="60" as="geometry" />
        </mxCell>
        <mxCell id="vMOTaNs-PnMBThvRDVrO-5" value="" style="rounded=0;whiteSpace=wrap;html=1;" parent="1" vertex="1">
          <mxGeometry x="1460" y="197" width="789" height="513" as="geometry" />
        </mxCell>
        <mxCell id="vMOTaNs-PnMBThvRDVrO-164" style="rounded=0;orthogonalLoop=1;jettySize=auto;html=1;" parent="1" source="vMOTaNs-PnMBThvRDVrO-12" target="vMOTaNs-PnMBThvRDVrO-142" edge="1">
          <mxGeometry relative="1" as="geometry" />
        </mxCell>
        <mxCell id="vMOTaNs-PnMBThvRDVrO-165" style="rounded=0;orthogonalLoop=1;jettySize=auto;html=1;entryX=1;entryY=0.5;entryDx=0;entryDy=0;" parent="1" source="vMOTaNs-PnMBThvRDVrO-12" target="vMOTaNs-PnMBThvRDVrO-158" edge="1">
          <mxGeometry relative="1" as="geometry" />
        </mxCell>
        <mxCell id="vMOTaNs-PnMBThvRDVrO-166" style="rounded=0;orthogonalLoop=1;jettySize=auto;html=1;entryX=1;entryY=0.5;entryDx=0;entryDy=0;" parent="1" source="vMOTaNs-PnMBThvRDVrO-12" target="vMOTaNs-PnMBThvRDVrO-133" edge="1">
          <mxGeometry relative="1" as="geometry" />
        </mxCell>
        <mxCell id="vMOTaNs-PnMBThvRDVrO-182" style="rounded=0;orthogonalLoop=1;jettySize=auto;html=1;entryX=1;entryY=0.5;entryDx=0;entryDy=0;" parent="1" source="vMOTaNs-PnMBThvRDVrO-12" target="vMOTaNs-PnMBThvRDVrO-167" edge="1">
          <mxGeometry relative="1" as="geometry" />
        </mxCell>
        <mxCell id="vMOTaNs-PnMBThvRDVrO-12" value="Гость" style="shape=umlActor;verticalLabelPosition=bottom;verticalAlign=top;html=1;" parent="1" vertex="1">
          <mxGeometry x="2280" y="381" width="30" height="60" as="geometry" />
        </mxCell>
        <mxCell id="vMOTaNs-PnMBThvRDVrO-50" style="rounded=0;orthogonalLoop=1;jettySize=auto;html=1;entryX=0;entryY=0.5;entryDx=0;entryDy=0;exitX=0.917;exitY=0.24;exitDx=0;exitDy=0;exitPerimeter=0;dashed=1;endArrow=classic;endFill=1;" parent="1" source="vMOTaNs-PnMBThvRDVrO-14" target="vMOTaNs-PnMBThvRDVrO-17" edge="1">
          <mxGeometry relative="1" as="geometry" />
        </mxCell>
        <mxCell id="vMOTaNs-PnMBThvRDVrO-51" value="&amp;lt;&amp;lt;включить&amp;gt;&amp;gt;" style="edgeLabel;html=1;align=center;verticalAlign=middle;resizable=0;points=[];" parent="vMOTaNs-PnMBThvRDVrO-50" connectable="0" vertex="1">
          <mxGeometry x="-0.0602" y="-2" relative="1" as="geometry">
            <mxPoint as="offset" />
          </mxGeometry>
        </mxCell>
        <mxCell id="vMOTaNs-PnMBThvRDVrO-14" value="Управление гостями" style="ellipse;whiteSpace=wrap;html=1;" parent="1" vertex="1">
          <mxGeometry x="1509" y="293.5" width="110" height="38" as="geometry" />
        </mxCell>
        <mxCell id="vMOTaNs-PnMBThvRDVrO-17" value="Добавить" style="ellipse;whiteSpace=wrap;html=1;" parent="1" vertex="1">
          <mxGeometry x="1739" y="212.5" width="110" height="38" as="geometry" />
        </mxCell>
        <mxCell id="vMOTaNs-PnMBThvRDVrO-18" value="Изменить" style="ellipse;whiteSpace=wrap;html=1;" parent="1" vertex="1">
          <mxGeometry x="1739" y="252.5" width="110" height="38" as="geometry" />
        </mxCell>
        <mxCell id="vMOTaNs-PnMBThvRDVrO-25" value="Удалить" style="ellipse;whiteSpace=wrap;html=1;" parent="1" vertex="1">
          <mxGeometry x="1739" y="293.5" width="110" height="38" as="geometry" />
        </mxCell>
        <mxCell id="vMOTaNs-PnMBThvRDVrO-129" style="rounded=0;orthogonalLoop=1;jettySize=auto;html=1;entryX=0;entryY=0.5;entryDx=0;entryDy=0;" parent="1" source="vMOTaNs-PnMBThvRDVrO-42" target="vMOTaNs-PnMBThvRDVrO-14" edge="1">
          <mxGeometry relative="1" as="geometry" />
        </mxCell>
        <mxCell id="vMOTaNs-PnMBThvRDVrO-130" style="rounded=0;orthogonalLoop=1;jettySize=auto;html=1;entryX=0;entryY=0.5;entryDx=0;entryDy=0;" parent="1" source="vMOTaNs-PnMBThvRDVrO-42" target="vMOTaNs-PnMBThvRDVrO-94" edge="1">
          <mxGeometry relative="1" as="geometry" />
        </mxCell>
        <mxCell id="vMOTaNs-PnMBThvRDVrO-131" style="rounded=0;orthogonalLoop=1;jettySize=auto;html=1;entryX=0;entryY=0.5;entryDx=0;entryDy=0;" parent="1" source="vMOTaNs-PnMBThvRDVrO-42" target="vMOTaNs-PnMBThvRDVrO-104" edge="1">
          <mxGeometry relative="1" as="geometry" />
        </mxCell>
        <mxCell id="vMOTaNs-PnMBThvRDVrO-132" style="rounded=0;orthogonalLoop=1;jettySize=auto;html=1;entryX=0;entryY=0.5;entryDx=0;entryDy=0;" parent="1" source="vMOTaNs-PnMBThvRDVrO-42" target="vMOTaNs-PnMBThvRDVrO-128" edge="1">
          <mxGeometry relative="1" as="geometry" />
        </mxCell>
        <mxCell id="vMOTaNs-PnMBThvRDVrO-42" value="Admin" style="shape=umlActor;verticalLabelPosition=bottom;verticalAlign=top;html=1;" parent="1" vertex="1">
          <mxGeometry x="1400" y="441" width="30" height="60" as="geometry" />
        </mxCell>
        <mxCell id="vMOTaNs-PnMBThvRDVrO-56" style="rounded=0;orthogonalLoop=1;jettySize=auto;html=1;entryX=0;entryY=0.5;entryDx=0;entryDy=0;dashed=1;endArrow=classic;endFill=1;exitX=0.984;exitY=0.342;exitDx=0;exitDy=0;exitPerimeter=0;" parent="1" source="vMOTaNs-PnMBThvRDVrO-14" target="vMOTaNs-PnMBThvRDVrO-18" edge="1">
          <mxGeometry relative="1" as="geometry">
            <mxPoint x="1621" y="347.5" as="sourcePoint" />
            <mxPoint x="1744" y="304.5" as="targetPoint" />
          </mxGeometry>
        </mxCell>
        <mxCell id="vMOTaNs-PnMBThvRDVrO-57" value="&amp;lt;&amp;lt;включить&amp;gt;&amp;gt;" style="edgeLabel;html=1;align=center;verticalAlign=middle;resizable=0;points=[];" parent="vMOTaNs-PnMBThvRDVrO-56" connectable="0" vertex="1">
          <mxGeometry x="-0.0602" y="-2" relative="1" as="geometry">
            <mxPoint as="offset" />
          </mxGeometry>
        </mxCell>
        <mxCell id="vMOTaNs-PnMBThvRDVrO-58" style="rounded=0;orthogonalLoop=1;jettySize=auto;html=1;entryX=0;entryY=0.5;entryDx=0;entryDy=0;dashed=1;endArrow=classic;endFill=1;exitX=0.977;exitY=0.636;exitDx=0;exitDy=0;exitPerimeter=0;" parent="1" source="vMOTaNs-PnMBThvRDVrO-14" target="vMOTaNs-PnMBThvRDVrO-123" edge="1">
          <mxGeometry relative="1" as="geometry">
            <mxPoint x="1614" y="380.5" as="sourcePoint" />
            <mxPoint x="1735" y="334.5" as="targetPoint" />
          </mxGeometry>
        </mxCell>
        <mxCell id="vMOTaNs-PnMBThvRDVrO-59" value="&amp;lt;&amp;lt;включить&amp;gt;&amp;gt;" style="edgeLabel;html=1;align=center;verticalAlign=middle;resizable=0;points=[];" parent="vMOTaNs-PnMBThvRDVrO-58" connectable="0" vertex="1">
          <mxGeometry x="-0.0602" y="-2" relative="1" as="geometry">
            <mxPoint x="4" as="offset" />
          </mxGeometry>
        </mxCell>
        <mxCell id="vMOTaNs-PnMBThvRDVrO-92" style="rounded=0;orthogonalLoop=1;jettySize=auto;html=1;entryX=0;entryY=0.5;entryDx=0;entryDy=0;exitX=0.953;exitY=0.302;exitDx=0;exitDy=0;exitPerimeter=0;dashed=1;endArrow=classic;endFill=1;" parent="1" source="vMOTaNs-PnMBThvRDVrO-94" target="vMOTaNs-PnMBThvRDVrO-95" edge="1">
          <mxGeometry relative="1" as="geometry" />
        </mxCell>
        <mxCell id="vMOTaNs-PnMBThvRDVrO-93" value="&amp;lt;&amp;lt;включить&amp;gt;&amp;gt;" style="edgeLabel;html=1;align=center;verticalAlign=middle;resizable=0;points=[];" parent="vMOTaNs-PnMBThvRDVrO-92" connectable="0" vertex="1">
          <mxGeometry x="-0.0602" y="-2" relative="1" as="geometry">
            <mxPoint as="offset" />
          </mxGeometry>
        </mxCell>
        <mxCell id="vMOTaNs-PnMBThvRDVrO-94" value="Управление сотрудниками" style="ellipse;whiteSpace=wrap;html=1;" parent="1" vertex="1">
          <mxGeometry x="1510" y="461" width="110" height="38" as="geometry" />
        </mxCell>
        <mxCell id="vMOTaNs-PnMBThvRDVrO-95" value="Добавить" style="ellipse;whiteSpace=wrap;html=1;" parent="1" vertex="1">
          <mxGeometry x="1740" y="421" width="110" height="38" as="geometry" />
        </mxCell>
        <mxCell id="vMOTaNs-PnMBThvRDVrO-96" value="Изменить" style="ellipse;whiteSpace=wrap;html=1;" parent="1" vertex="1">
          <mxGeometry x="1740" y="461" width="110" height="38" as="geometry" />
        </mxCell>
        <mxCell id="vMOTaNs-PnMBThvRDVrO-97" value="Удалить" style="ellipse;whiteSpace=wrap;html=1;" parent="1" vertex="1">
          <mxGeometry x="1740" y="502" width="110" height="38" as="geometry" />
        </mxCell>
        <mxCell id="vMOTaNs-PnMBThvRDVrO-98" style="rounded=0;orthogonalLoop=1;jettySize=auto;html=1;entryX=0;entryY=0.5;entryDx=0;entryDy=0;dashed=1;endArrow=classic;endFill=1;exitX=1;exitY=0.5;exitDx=0;exitDy=0;" parent="1" source="vMOTaNs-PnMBThvRDVrO-94" target="vMOTaNs-PnMBThvRDVrO-96" edge="1">
          <mxGeometry relative="1" as="geometry">
            <mxPoint x="1622" y="556" as="sourcePoint" />
            <mxPoint x="1745" y="513" as="targetPoint" />
          </mxGeometry>
        </mxCell>
        <mxCell id="vMOTaNs-PnMBThvRDVrO-99" value="&amp;lt;&amp;lt;включить&amp;gt;&amp;gt;" style="edgeLabel;html=1;align=center;verticalAlign=middle;resizable=0;points=[];" parent="vMOTaNs-PnMBThvRDVrO-98" connectable="0" vertex="1">
          <mxGeometry x="-0.0602" y="-2" relative="1" as="geometry">
            <mxPoint as="offset" />
          </mxGeometry>
        </mxCell>
        <mxCell id="vMOTaNs-PnMBThvRDVrO-100" style="rounded=0;orthogonalLoop=1;jettySize=auto;html=1;entryX=0;entryY=0.5;entryDx=0;entryDy=0;dashed=1;endArrow=classic;endFill=1;" parent="1" source="vMOTaNs-PnMBThvRDVrO-94" target="vMOTaNs-PnMBThvRDVrO-97" edge="1">
          <mxGeometry relative="1" as="geometry">
            <mxPoint x="1615" y="589" as="sourcePoint" />
            <mxPoint x="1736" y="543" as="targetPoint" />
          </mxGeometry>
        </mxCell>
        <mxCell id="vMOTaNs-PnMBThvRDVrO-101" value="&amp;lt;&amp;lt;включить&amp;gt;&amp;gt;" style="edgeLabel;html=1;align=center;verticalAlign=middle;resizable=0;points=[];" parent="vMOTaNs-PnMBThvRDVrO-100" connectable="0" vertex="1">
          <mxGeometry x="-0.0602" y="-2" relative="1" as="geometry">
            <mxPoint x="5" as="offset" />
          </mxGeometry>
        </mxCell>
        <mxCell id="vMOTaNs-PnMBThvRDVrO-102" style="rounded=0;orthogonalLoop=1;jettySize=auto;html=1;entryX=0;entryY=0.5;entryDx=0;entryDy=0;exitX=0.953;exitY=0.302;exitDx=0;exitDy=0;exitPerimeter=0;dashed=1;endArrow=classic;endFill=1;" parent="1" source="vMOTaNs-PnMBThvRDVrO-104" target="vMOTaNs-PnMBThvRDVrO-105" edge="1">
          <mxGeometry relative="1" as="geometry" />
        </mxCell>
        <mxCell id="vMOTaNs-PnMBThvRDVrO-103" value="&amp;lt;&amp;lt;включить&amp;gt;&amp;gt;" style="edgeLabel;html=1;align=center;verticalAlign=middle;resizable=0;points=[];" parent="vMOTaNs-PnMBThvRDVrO-102" connectable="0" vertex="1">
          <mxGeometry x="-0.0602" y="-2" relative="1" as="geometry">
            <mxPoint as="offset" />
          </mxGeometry>
        </mxCell>
        <mxCell id="vMOTaNs-PnMBThvRDVrO-104" value="&lt;div&gt;Управление&amp;nbsp;&lt;/div&gt;&lt;div&gt;отелем&lt;/div&gt;" style="ellipse;whiteSpace=wrap;html=1;" parent="1" vertex="1">
          <mxGeometry x="1509" y="602" width="110" height="38" as="geometry" />
        </mxCell>
        <mxCell id="vMOTaNs-PnMBThvRDVrO-105" value="Управление услугами" style="ellipse;whiteSpace=wrap;html=1;" parent="1" vertex="1">
          <mxGeometry x="1740" y="544" width="110" height="38" as="geometry" />
        </mxCell>
        <mxCell id="vMOTaNs-PnMBThvRDVrO-106" value="Управление комнатами" style="ellipse;whiteSpace=wrap;html=1;" parent="1" vertex="1">
          <mxGeometry x="1740" y="584" width="110" height="38" as="geometry" />
        </mxCell>
        <mxCell id="vMOTaNs-PnMBThvRDVrO-107" value="Управление бронированием" style="ellipse;whiteSpace=wrap;html=1;" parent="1" vertex="1">
          <mxGeometry x="1740" y="625" width="110" height="38" as="geometry" />
        </mxCell>
        <mxCell id="vMOTaNs-PnMBThvRDVrO-108" style="rounded=0;orthogonalLoop=1;jettySize=auto;html=1;entryX=0;entryY=0.5;entryDx=0;entryDy=0;dashed=1;endArrow=classic;endFill=1;exitX=1;exitY=0.5;exitDx=0;exitDy=0;" parent="1" source="vMOTaNs-PnMBThvRDVrO-104" target="vMOTaNs-PnMBThvRDVrO-106" edge="1">
          <mxGeometry relative="1" as="geometry">
            <mxPoint x="1622" y="679" as="sourcePoint" />
            <mxPoint x="1745" y="636" as="targetPoint" />
          </mxGeometry>
        </mxCell>
        <mxCell id="vMOTaNs-PnMBThvRDVrO-109" value="&amp;lt;&amp;lt;включить&amp;gt;&amp;gt;" style="edgeLabel;html=1;align=center;verticalAlign=middle;resizable=0;points=[];" parent="vMOTaNs-PnMBThvRDVrO-108" connectable="0" vertex="1">
          <mxGeometry x="-0.0602" y="-2" relative="1" as="geometry">
            <mxPoint as="offset" />
          </mxGeometry>
        </mxCell>
        <mxCell id="vMOTaNs-PnMBThvRDVrO-110" style="rounded=0;orthogonalLoop=1;jettySize=auto;html=1;entryX=0;entryY=0.5;entryDx=0;entryDy=0;dashed=1;endArrow=classic;endFill=1;" parent="1" source="vMOTaNs-PnMBThvRDVrO-104" target="vMOTaNs-PnMBThvRDVrO-107" edge="1">
          <mxGeometry relative="1" as="geometry">
            <mxPoint x="1615" y="712" as="sourcePoint" />
            <mxPoint x="1736" y="666" as="targetPoint" />
          </mxGeometry>
        </mxCell>
        <mxCell id="vMOTaNs-PnMBThvRDVrO-111" value="&amp;lt;&amp;lt;включить&amp;gt;&amp;gt;" style="edgeLabel;html=1;align=center;verticalAlign=middle;resizable=0;points=[];" parent="vMOTaNs-PnMBThvRDVrO-110" connectable="0" vertex="1">
          <mxGeometry x="-0.0602" y="-2" relative="1" as="geometry">
            <mxPoint x="3" as="offset" />
          </mxGeometry>
        </mxCell>
        <mxCell id="vMOTaNs-PnMBThvRDVrO-112" style="rounded=0;orthogonalLoop=1;jettySize=auto;html=1;entryX=0;entryY=0.5;entryDx=0;entryDy=0;exitX=0.97;exitY=0.833;exitDx=0;exitDy=0;dashed=1;endArrow=classic;endFill=1;exitPerimeter=0;" parent="1" source="vMOTaNs-PnMBThvRDVrO-104" target="vMOTaNs-PnMBThvRDVrO-115" edge="1">
          <mxGeometry relative="1" as="geometry">
            <mxPoint x="1613.83" y="723.4759999999999" as="sourcePoint" />
          </mxGeometry>
        </mxCell>
        <mxCell id="vMOTaNs-PnMBThvRDVrO-113" value="&amp;lt;&amp;lt;включить&amp;gt;&amp;gt;" style="edgeLabel;html=1;align=center;verticalAlign=middle;resizable=0;points=[];" parent="vMOTaNs-PnMBThvRDVrO-112" connectable="0" vertex="1">
          <mxGeometry x="-0.0602" y="-2" relative="1" as="geometry">
            <mxPoint as="offset" />
          </mxGeometry>
        </mxCell>
        <mxCell id="vMOTaNs-PnMBThvRDVrO-115" value="Управление тарифами" style="ellipse;whiteSpace=wrap;html=1;" parent="1" vertex="1">
          <mxGeometry x="1740" y="666" width="110" height="38" as="geometry" />
        </mxCell>
        <mxCell id="vMOTaNs-PnMBThvRDVrO-122" value="Выселить из отеля" style="ellipse;whiteSpace=wrap;html=1;" parent="1" vertex="1">
          <mxGeometry x="1739" y="376" width="110" height="38" as="geometry" />
        </mxCell>
        <mxCell id="vMOTaNs-PnMBThvRDVrO-123" value="Заселить в отель" style="ellipse;whiteSpace=wrap;html=1;" parent="1" vertex="1">
          <mxGeometry x="1739" y="334.5" width="110" height="38" as="geometry" />
        </mxCell>
        <mxCell id="vMOTaNs-PnMBThvRDVrO-124" style="rounded=0;orthogonalLoop=1;jettySize=auto;html=1;entryX=0;entryY=0.5;entryDx=0;entryDy=0;exitX=0.901;exitY=0.805;exitDx=0;exitDy=0;dashed=1;endArrow=classic;endFill=1;exitPerimeter=0;" parent="1" source="vMOTaNs-PnMBThvRDVrO-14" target="vMOTaNs-PnMBThvRDVrO-122" edge="1">
          <mxGeometry relative="1" as="geometry">
            <mxPoint x="1555" y="351" as="sourcePoint" />
            <mxPoint x="1680" y="319" as="targetPoint" />
          </mxGeometry>
        </mxCell>
        <mxCell id="vMOTaNs-PnMBThvRDVrO-125" value="&amp;lt;&amp;lt;включить&amp;gt;&amp;gt;" style="edgeLabel;html=1;align=center;verticalAlign=middle;resizable=0;points=[];" parent="vMOTaNs-PnMBThvRDVrO-124" connectable="0" vertex="1">
          <mxGeometry x="-0.0602" y="-2" relative="1" as="geometry">
            <mxPoint as="offset" />
          </mxGeometry>
        </mxCell>
        <mxCell id="vMOTaNs-PnMBThvRDVrO-126" style="rounded=0;orthogonalLoop=1;jettySize=auto;html=1;entryX=0;entryY=0.5;entryDx=0;entryDy=0;exitX=1;exitY=0.5;exitDx=0;exitDy=0;dashed=1;endArrow=classic;endFill=1;" parent="1" source="vMOTaNs-PnMBThvRDVrO-14" target="vMOTaNs-PnMBThvRDVrO-25" edge="1">
          <mxGeometry relative="1" as="geometry">
            <mxPoint x="1712" y="469" as="sourcePoint" />
            <mxPoint x="1837" y="437" as="targetPoint" />
          </mxGeometry>
        </mxCell>
        <mxCell id="vMOTaNs-PnMBThvRDVrO-127" value="&amp;lt;&amp;lt;включить&amp;gt;&amp;gt;" style="edgeLabel;html=1;align=center;verticalAlign=middle;resizable=0;points=[];" parent="vMOTaNs-PnMBThvRDVrO-126" connectable="0" vertex="1">
          <mxGeometry x="-0.0602" y="-2" relative="1" as="geometry">
            <mxPoint as="offset" />
          </mxGeometry>
        </mxCell>
        <mxCell id="vMOTaNs-PnMBThvRDVrO-128" value="Авторизация" style="ellipse;whiteSpace=wrap;html=1;" parent="1" vertex="1">
          <mxGeometry x="1509" y="384" width="110" height="38" as="geometry" />
        </mxCell>
        <mxCell id="vMOTaNs-PnMBThvRDVrO-133" value="Забронировать номер" style="ellipse;whiteSpace=wrap;html=1;" parent="1" vertex="1">
          <mxGeometry x="2099" y="240" width="110" height="38" as="geometry" />
        </mxCell>
        <mxCell id="vMOTaNs-PnMBThvRDVrO-134" value="Забронировать предварительно" style="ellipse;whiteSpace=wrap;html=1;" parent="1" vertex="1">
          <mxGeometry x="1869" y="212.5" width="110" height="38" as="geometry" />
        </mxCell>
        <mxCell id="vMOTaNs-PnMBThvRDVrO-135" value="Забронировать сейчас" style="ellipse;whiteSpace=wrap;html=1;" parent="1" vertex="1">
          <mxGeometry x="1869" y="253.5" width="110" height="38" as="geometry" />
        </mxCell>
        <mxCell id="vMOTaNs-PnMBThvRDVrO-136" value="Изменить бронь" style="ellipse;whiteSpace=wrap;html=1;" parent="1" vertex="1">
          <mxGeometry x="1869" y="337" width="110" height="38" as="geometry" />
        </mxCell>
        <mxCell id="vMOTaNs-PnMBThvRDVrO-137" value="Отменить бронь" style="ellipse;whiteSpace=wrap;html=1;" parent="1" vertex="1">
          <mxGeometry x="1869" y="378" width="110" height="38" as="geometry" />
        </mxCell>
        <mxCell id="vMOTaNs-PnMBThvRDVrO-138" value="восстановить бронь" style="ellipse;whiteSpace=wrap;html=1;" parent="1" vertex="1">
          <mxGeometry x="1869" y="296" width="110" height="38" as="geometry" />
        </mxCell>
        <mxCell id="vMOTaNs-PnMBThvRDVrO-141" value="Досрочно выселение" style="ellipse;whiteSpace=wrap;html=1;" parent="1" vertex="1">
          <mxGeometry x="1869" y="419" width="110" height="38" as="geometry" />
        </mxCell>
        <mxCell id="vMOTaNs-PnMBThvRDVrO-142" value="Управление бронированием" style="ellipse;whiteSpace=wrap;html=1;" parent="1" vertex="1">
          <mxGeometry x="2099" y="356" width="110" height="38" as="geometry" />
        </mxCell>
        <mxCell id="vMOTaNs-PnMBThvRDVrO-143" value="Заказать" style="ellipse;whiteSpace=wrap;html=1;" parent="1" vertex="1">
          <mxGeometry x="1869" y="459" width="110" height="38" as="geometry" />
        </mxCell>
        <mxCell id="vMOTaNs-PnMBThvRDVrO-144" value="Отменить" style="ellipse;whiteSpace=wrap;html=1;" parent="1" vertex="1">
          <mxGeometry x="1869" y="500" width="110" height="38" as="geometry" />
        </mxCell>
        <mxCell id="vMOTaNs-PnMBThvRDVrO-145" style="rounded=0;orthogonalLoop=1;jettySize=auto;html=1;entryX=1;entryY=0.5;entryDx=0;entryDy=0;dashed=1;endArrow=classic;endFill=1;exitX=0.026;exitY=0.298;exitDx=0;exitDy=0;exitPerimeter=0;" parent="1" source="vMOTaNs-PnMBThvRDVrO-142" target="vMOTaNs-PnMBThvRDVrO-138" edge="1">
          <mxGeometry relative="1" as="geometry">
            <mxPoint x="2019" y="300" as="sourcePoint" />
            <mxPoint x="2142" y="336" as="targetPoint" />
          </mxGeometry>
        </mxCell>
        <mxCell id="vMOTaNs-PnMBThvRDVrO-146" value="&amp;lt;&amp;lt;включить&amp;gt;&amp;gt;" style="edgeLabel;html=1;align=center;verticalAlign=middle;resizable=0;points=[];" parent="vMOTaNs-PnMBThvRDVrO-145" connectable="0" vertex="1">
          <mxGeometry x="-0.0602" y="-2" relative="1" as="geometry">
            <mxPoint x="4" as="offset" />
          </mxGeometry>
        </mxCell>
        <mxCell id="vMOTaNs-PnMBThvRDVrO-147" style="rounded=0;orthogonalLoop=1;jettySize=auto;html=1;entryX=1;entryY=0.5;entryDx=0;entryDy=0;dashed=1;endArrow=classic;endFill=1;exitX=0;exitY=0.5;exitDx=0;exitDy=0;" parent="1" source="vMOTaNs-PnMBThvRDVrO-142" target="vMOTaNs-PnMBThvRDVrO-136" edge="1">
          <mxGeometry relative="1" as="geometry">
            <mxPoint x="2059" y="377" as="sourcePoint" />
            <mxPoint x="1989" y="325" as="targetPoint" />
          </mxGeometry>
        </mxCell>
        <mxCell id="vMOTaNs-PnMBThvRDVrO-148" value="&amp;lt;&amp;lt;включить&amp;gt;&amp;gt;" style="edgeLabel;html=1;align=center;verticalAlign=middle;resizable=0;points=[];" parent="vMOTaNs-PnMBThvRDVrO-147" connectable="0" vertex="1">
          <mxGeometry x="-0.0602" y="-2" relative="1" as="geometry">
            <mxPoint x="4" as="offset" />
          </mxGeometry>
        </mxCell>
        <mxCell id="vMOTaNs-PnMBThvRDVrO-149" style="rounded=0;orthogonalLoop=1;jettySize=auto;html=1;entryX=1;entryY=0.5;entryDx=0;entryDy=0;dashed=1;endArrow=classic;endFill=1;exitX=0.017;exitY=0.715;exitDx=0;exitDy=0;exitPerimeter=0;" parent="1" source="vMOTaNs-PnMBThvRDVrO-142" target="vMOTaNs-PnMBThvRDVrO-137" edge="1">
          <mxGeometry relative="1" as="geometry">
            <mxPoint x="2069" y="387" as="sourcePoint" />
            <mxPoint x="1999" y="335" as="targetPoint" />
          </mxGeometry>
        </mxCell>
        <mxCell id="vMOTaNs-PnMBThvRDVrO-150" value="&amp;lt;&amp;lt;включить&amp;gt;&amp;gt;" style="edgeLabel;html=1;align=center;verticalAlign=middle;resizable=0;points=[];" parent="vMOTaNs-PnMBThvRDVrO-149" connectable="0" vertex="1">
          <mxGeometry x="-0.0602" y="-2" relative="1" as="geometry">
            <mxPoint x="4" as="offset" />
          </mxGeometry>
        </mxCell>
        <mxCell id="vMOTaNs-PnMBThvRDVrO-151" style="rounded=0;orthogonalLoop=1;jettySize=auto;html=1;entryX=1;entryY=0.5;entryDx=0;entryDy=0;dashed=1;endArrow=classic;endFill=1;exitX=0.076;exitY=0.782;exitDx=0;exitDy=0;exitPerimeter=0;" parent="1" source="vMOTaNs-PnMBThvRDVrO-142" target="vMOTaNs-PnMBThvRDVrO-141" edge="1">
          <mxGeometry relative="1" as="geometry">
            <mxPoint x="2059" y="397" as="sourcePoint" />
            <mxPoint x="2009" y="345" as="targetPoint" />
          </mxGeometry>
        </mxCell>
        <mxCell id="vMOTaNs-PnMBThvRDVrO-152" value="&amp;lt;&amp;lt;включить&amp;gt;&amp;gt;" style="edgeLabel;html=1;align=center;verticalAlign=middle;resizable=0;points=[];" parent="vMOTaNs-PnMBThvRDVrO-151" connectable="0" vertex="1">
          <mxGeometry x="-0.0602" y="-2" relative="1" as="geometry">
            <mxPoint x="4" as="offset" />
          </mxGeometry>
        </mxCell>
        <mxCell id="vMOTaNs-PnMBThvRDVrO-153" style="rounded=0;orthogonalLoop=1;jettySize=auto;html=1;entryX=1;entryY=0.5;entryDx=0;entryDy=0;dashed=1;endArrow=classic;endFill=1;exitX=0;exitY=0.5;exitDx=0;exitDy=0;" parent="1" source="vMOTaNs-PnMBThvRDVrO-133" target="vMOTaNs-PnMBThvRDVrO-135" edge="1">
          <mxGeometry relative="1" as="geometry">
            <mxPoint x="2089" y="431" as="sourcePoint" />
            <mxPoint x="2019" y="379" as="targetPoint" />
          </mxGeometry>
        </mxCell>
        <mxCell id="vMOTaNs-PnMBThvRDVrO-154" value="&amp;lt;&amp;lt;расширить&amp;gt;&amp;gt;" style="edgeLabel;html=1;align=center;verticalAlign=middle;resizable=0;points=[];" parent="vMOTaNs-PnMBThvRDVrO-153" connectable="0" vertex="1">
          <mxGeometry x="-0.0602" y="-2" relative="1" as="geometry">
            <mxPoint x="4" as="offset" />
          </mxGeometry>
        </mxCell>
        <mxCell id="vMOTaNs-PnMBThvRDVrO-156" style="rounded=0;orthogonalLoop=1;jettySize=auto;html=1;entryX=1;entryY=0.5;entryDx=0;entryDy=0;dashed=1;endArrow=classic;endFill=1;exitX=0.003;exitY=0.384;exitDx=0;exitDy=0;exitPerimeter=0;" parent="1" source="vMOTaNs-PnMBThvRDVrO-133" target="vMOTaNs-PnMBThvRDVrO-134" edge="1">
          <mxGeometry relative="1" as="geometry">
            <mxPoint x="2109" y="269" as="sourcePoint" />
            <mxPoint x="1989" y="283" as="targetPoint" />
          </mxGeometry>
        </mxCell>
        <mxCell id="vMOTaNs-PnMBThvRDVrO-157" value="&amp;lt;&amp;lt;расширить&amp;gt;&amp;gt;" style="edgeLabel;html=1;align=center;verticalAlign=middle;resizable=0;points=[];" parent="vMOTaNs-PnMBThvRDVrO-156" connectable="0" vertex="1">
          <mxGeometry x="-0.0602" y="-2" relative="1" as="geometry">
            <mxPoint x="4" as="offset" />
          </mxGeometry>
        </mxCell>
        <mxCell id="vMOTaNs-PnMBThvRDVrO-158" value="Заказ услуг" style="ellipse;whiteSpace=wrap;html=1;" parent="1" vertex="1">
          <mxGeometry x="2099" y="441" width="110" height="38" as="geometry" />
        </mxCell>
        <mxCell id="vMOTaNs-PnMBThvRDVrO-160" style="rounded=0;orthogonalLoop=1;jettySize=auto;html=1;entryX=0.984;entryY=0.384;entryDx=0;entryDy=0;dashed=1;endArrow=classic;endFill=1;exitX=0.008;exitY=0.389;exitDx=0;exitDy=0;exitPerimeter=0;entryPerimeter=0;" parent="1" source="vMOTaNs-PnMBThvRDVrO-158" target="vMOTaNs-PnMBThvRDVrO-143" edge="1">
          <mxGeometry relative="1" as="geometry">
            <mxPoint x="2117" y="386" as="sourcePoint" />
            <mxPoint x="1989" y="438" as="targetPoint" />
          </mxGeometry>
        </mxCell>
        <mxCell id="vMOTaNs-PnMBThvRDVrO-161" value="&amp;lt;&amp;lt;включить&amp;gt;&amp;gt;" style="edgeLabel;html=1;align=center;verticalAlign=middle;resizable=0;points=[];" parent="vMOTaNs-PnMBThvRDVrO-160" connectable="0" vertex="1">
          <mxGeometry x="-0.0602" y="-2" relative="1" as="geometry">
            <mxPoint x="4" as="offset" />
          </mxGeometry>
        </mxCell>
        <mxCell id="vMOTaNs-PnMBThvRDVrO-162" style="rounded=0;orthogonalLoop=1;jettySize=auto;html=1;entryX=1;entryY=0.5;entryDx=0;entryDy=0;dashed=1;endArrow=classic;endFill=1;exitX=0.008;exitY=0.606;exitDx=0;exitDy=0;exitPerimeter=0;" parent="1" source="vMOTaNs-PnMBThvRDVrO-158" target="vMOTaNs-PnMBThvRDVrO-144" edge="1">
          <mxGeometry relative="1" as="geometry">
            <mxPoint x="2127" y="396" as="sourcePoint" />
            <mxPoint x="1999" y="448" as="targetPoint" />
          </mxGeometry>
        </mxCell>
        <mxCell id="vMOTaNs-PnMBThvRDVrO-163" value="&amp;lt;&amp;lt;включить&amp;gt;&amp;gt;" style="edgeLabel;html=1;align=center;verticalAlign=middle;resizable=0;points=[];" parent="vMOTaNs-PnMBThvRDVrO-162" connectable="0" vertex="1">
          <mxGeometry x="-0.0602" y="-2" relative="1" as="geometry">
            <mxPoint x="4" as="offset" />
          </mxGeometry>
        </mxCell>
        <mxCell id="vMOTaNs-PnMBThvRDVrO-167" value="Авторизация" style="ellipse;whiteSpace=wrap;html=1;" parent="1" vertex="1">
          <mxGeometry x="2099" y="497" width="110" height="38" as="geometry" />
        </mxCell>
        <mxCell id="vMOTaNs-PnMBThvRDVrO-168" value="&lt;p style=&quot;line-height: 120%; font-size: 11px;&quot;&gt;&lt;font style=&quot;font-size: 12px;&quot;&gt;&amp;nbsp;Информацию об услугах&lt;/font&gt;&lt;/p&gt;" style="ellipse;whiteSpace=wrap;html=1;" parent="1" vertex="1">
          <mxGeometry x="1869" y="544" width="110" height="38" as="geometry" />
        </mxCell>
        <mxCell id="vMOTaNs-PnMBThvRDVrO-169" value="&lt;p style=&quot;line-height: 120%; font-size: 11px;&quot;&gt;&lt;font style=&quot;font-size: 12px;&quot;&gt;Информация о бронях&lt;/font&gt;&lt;br&gt;&lt;/p&gt;" style="ellipse;whiteSpace=wrap;html=1;" parent="1" vertex="1">
          <mxGeometry x="1869" y="587" width="110" height="38" as="geometry" />
        </mxCell>
        <mxCell id="vMOTaNs-PnMBThvRDVrO-170" value="Уволиться" style="ellipse;whiteSpace=wrap;html=1;" parent="1" vertex="1">
          <mxGeometry x="2099" y="640" width="110" height="38" as="geometry" />
        </mxCell>
        <mxCell id="vMOTaNs-PnMBThvRDVrO-171" value="Получить информацию" style="ellipse;whiteSpace=wrap;html=1;" parent="1" vertex="1">
          <mxGeometry x="2099" y="550" width="110" height="38" as="geometry" />
        </mxCell>
        <mxCell id="vMOTaNs-PnMBThvRDVrO-172" value="Найти гостя" style="ellipse;whiteSpace=wrap;html=1;" parent="1" vertex="1">
          <mxGeometry x="2099" y="596" width="110" height="38" as="geometry" />
        </mxCell>
        <mxCell id="vMOTaNs-PnMBThvRDVrO-173" style="rounded=0;orthogonalLoop=1;jettySize=auto;html=1;entryX=1;entryY=0.5;entryDx=0;entryDy=0;dashed=1;endArrow=classic;endFill=1;exitX=-0.002;exitY=0.368;exitDx=0;exitDy=0;exitPerimeter=0;" parent="1" source="vMOTaNs-PnMBThvRDVrO-171" target="vMOTaNs-PnMBThvRDVrO-168" edge="1">
          <mxGeometry relative="1" as="geometry">
            <mxPoint x="2090" y="563" as="sourcePoint" />
            <mxPoint x="1979" y="584" as="targetPoint" />
          </mxGeometry>
        </mxCell>
        <mxCell id="vMOTaNs-PnMBThvRDVrO-174" value="&amp;lt;&amp;lt;включить&amp;gt;&amp;gt;" style="edgeLabel;html=1;align=center;verticalAlign=middle;resizable=0;points=[];" parent="vMOTaNs-PnMBThvRDVrO-173" connectable="0" vertex="1">
          <mxGeometry x="-0.0602" y="-2" relative="1" as="geometry">
            <mxPoint x="4" as="offset" />
          </mxGeometry>
        </mxCell>
        <mxCell id="vMOTaNs-PnMBThvRDVrO-175" style="rounded=0;orthogonalLoop=1;jettySize=auto;html=1;entryX=1;entryY=0.5;entryDx=0;entryDy=0;dashed=1;endArrow=classic;endFill=1;exitX=0;exitY=0.5;exitDx=0;exitDy=0;" parent="1" source="vMOTaNs-PnMBThvRDVrO-171" target="vMOTaNs-PnMBThvRDVrO-169" edge="1">
          <mxGeometry relative="1" as="geometry">
            <mxPoint x="2110" y="518" as="sourcePoint" />
            <mxPoint x="1999" y="539" as="targetPoint" />
          </mxGeometry>
        </mxCell>
        <mxCell id="vMOTaNs-PnMBThvRDVrO-176" value="&amp;lt;&amp;lt;включить&amp;gt;&amp;gt;" style="edgeLabel;html=1;align=center;verticalAlign=middle;resizable=0;points=[];" parent="vMOTaNs-PnMBThvRDVrO-175" connectable="0" vertex="1">
          <mxGeometry x="-0.0602" y="-2" relative="1" as="geometry">
            <mxPoint x="4" as="offset" />
          </mxGeometry>
        </mxCell>
        <mxCell id="vMOTaNs-PnMBThvRDVrO-178" style="rounded=0;orthogonalLoop=1;jettySize=auto;html=1;entryX=0.963;entryY=0.737;entryDx=0;entryDy=0;entryPerimeter=0;" parent="1" source="vMOTaNs-PnMBThvRDVrO-177" target="vMOTaNs-PnMBThvRDVrO-167" edge="1">
          <mxGeometry relative="1" as="geometry" />
        </mxCell>
        <mxCell id="vMOTaNs-PnMBThvRDVrO-179" style="rounded=0;orthogonalLoop=1;jettySize=auto;html=1;" parent="1" source="vMOTaNs-PnMBThvRDVrO-177" target="vMOTaNs-PnMBThvRDVrO-171" edge="1">
          <mxGeometry relative="1" as="geometry" />
        </mxCell>
        <mxCell id="vMOTaNs-PnMBThvRDVrO-181" style="rounded=0;orthogonalLoop=1;jettySize=auto;html=1;entryX=1;entryY=0.5;entryDx=0;entryDy=0;" parent="1" source="vMOTaNs-PnMBThvRDVrO-177" target="vMOTaNs-PnMBThvRDVrO-170" edge="1">
          <mxGeometry relative="1" as="geometry" />
        </mxCell>
        <mxCell id="vMOTaNs-PnMBThvRDVrO-177" value="Сотрудник" style="shape=umlActor;verticalLabelPosition=bottom;verticalAlign=top;html=1;" parent="1" vertex="1">
          <mxGeometry x="2280" y="550" width="30" height="60" as="geometry" />
        </mxCell>
        <mxCell id="vMOTaNs-PnMBThvRDVrO-180" style="rounded=0;orthogonalLoop=1;jettySize=auto;html=1;entryX=0.974;entryY=0.373;entryDx=0;entryDy=0;entryPerimeter=0;" parent="1" source="vMOTaNs-PnMBThvRDVrO-177" target="vMOTaNs-PnMBThvRDVrO-172" edge="1">
          <mxGeometry relative="1" as="geometry" />
        </mxCell>
        <mxCell id="vMOTaNs-PnMBThvRDVrO-183" style="rounded=0;orthogonalLoop=1;jettySize=auto;html=1;entryX=0.998;entryY=0.293;entryDx=0;entryDy=0;entryPerimeter=0;" parent="1" source="vMOTaNs-PnMBThvRDVrO-12" target="vMOTaNs-PnMBThvRDVrO-171" edge="1">
          <mxGeometry relative="1" as="geometry" />
        </mxCell>
      </root>
    </mxGraphModel>
  </diagram>
</mxfile>
